<svg xmlns="http://www.w3.org/2000/svg" width="30" height="30" viewBox="0 0 30 30">
  <g id="Group_3743" data-name="Group 3743" transform="translate(-791 -3380)">
    <circle id="Ellipse_137" data-name="Ellipse 137" cx="15" cy="15" r="15" transform="translate(791 3380)" fill="#1e95ee"/>
    <g id="Group_3676" data-name="Group 3676" transform="translate(799.258 3390.615)">
      <path id="Path_4659" data-name="Path 4659" d="M.659,6.226A2.188,2.188,0,0,1,.659,3,12.092,12.092,0,0,1,4.272.556a6.641,6.641,0,0,1,5.67.167A12.693,12.693,0,0,1,13.194,3a2.233,2.233,0,0,1,0,3.224A18.5,18.5,0,0,1,11.36,7.7a9.129,9.129,0,0,1-3.141,1.39,6.677,6.677,0,0,1-4.336-.584A13.5,13.5,0,0,1,.659,6.226ZM3.827,4.558A3.124,3.124,0,0,0,6.8,7.7,3.09,3.09,0,1,0,3.827,4.558Z" transform="translate(0.05 0)" fill="#fff"/>
      <path id="Path_4660" data-name="Path 4660" d="M22.452,12.412a1.626,1.626,0,1,1-1.64-1.612,1.353,1.353,0,0,1,.334.028.856.856,0,0,0-.083.361.807.807,0,0,0,.806.806.937.937,0,0,0,.473-.139A1.244,1.244,0,0,1,22.452,12.412Z" transform="translate(-13.85 -7.798)" fill="#fff"/>
    </g>
  </g>
</svg>
