<svg xmlns="http://www.w3.org/2000/svg" width="30" height="30" viewBox="0 0 30 30">
  <g id="Group_3743" data-name="Group 3743" transform="translate(-791 -3380)">
    <circle id="Ellipse_137" data-name="Ellipse 137" cx="15" cy="15" r="15" transform="translate(791 3380)" fill="#1e95ee"/>
    <g id="Group_4695" data-name="Group 4695" transform="translate(800.6 3389)">
      <g id="Group_4682" data-name="Group 4682" transform="translate(0 0)">
        <path id="Path_5952" data-name="Path 5952" d="M6.852,8.146c-.675-1.277-1.976.554-2.482.048A7.456,7.456,0,0,1,2.418,4.1a.274.274,0,0,1,.193-.337c1.976-.819,1.638-1.036.94-2.458h.024C3.213.557,2.948-.335,2.033.075.828.629.395.8.226,1.352A6.251,6.251,0,0,0-.015,2.629C-.184,7.447,4.177,12.507,6.2,11.567c.434-.193.843-.41,1.253-.626a.705.705,0,0,0,.289-.916C7.454,9.375,7.165,8.748,6.852,8.146Z" transform="translate(0.02 0.029)" fill="#fff"/>
      </g>
      <path id="Path_5953" data-name="Path 5953" d="M25.672,6.53l-1.662-1.4a.218.218,0,0,0-.361.169v.94a3.872,3.872,0,0,0-3.686,2.433.546.546,0,0,0,1.012.41,2.818,2.818,0,0,1,2.674-1.759v.94a.218.218,0,0,0,.361.169l1.662-1.4A.316.316,0,0,0,25.672,6.53Z" transform="translate(-15.114 -3.849)" fill="#fff"/>
    </g>
  </g>
</svg>
