<svg id="Group_2453" data-name="Group 2453" xmlns="http://www.w3.org/2000/svg" width="164.111" height="22.857" viewBox="0 0 164.111 22.857">
  <path id="Path_2561" data-name="Path 2561" d="M95.743,13.733c1.219,3.048,4.876,4.571,4.419,8.381A3.217,3.217,0,0,1,96.2,20.742c-1.067-1.829-2.59-3.2-3.657-5.028A2.874,2.874,0,0,0,89.19,14.19a9.956,9.956,0,0,1-2.133,0v8.076H83.4V.323c3.657,0,7.314-.152,10.971,0a6.479,6.479,0,0,1,5.79,5.638,7.084,7.084,0,0,1-3.352,7.314C96.5,13.428,96.047,13.58,95.743,13.733Zm-8.686-2.9c2.286,0,4.571.152,6.7,0a3.468,3.468,0,0,0,3.048-3.5,3.364,3.364,0,0,0-3.048-3.5c-2.133-.152-4.419,0-6.7,0Z" transform="translate(43.684 0.134)" fill="#fff"/>
  <path id="Path_2562" data-name="Path 2562" d="M77.676,0A11.285,11.285,0,0,1,88.952,11.428,11.512,11.512,0,0,1,77.524,22.857,11.158,11.158,0,0,1,66.4,11.428,11.381,11.381,0,0,1,77.676,0Zm0,19.352A7.966,7.966,0,0,0,85.6,11.428a8.1,8.1,0,0,0-7.924-8.076,7.967,7.967,0,0,0-7.924,7.924A8.1,8.1,0,0,0,77.676,19.352Z" transform="translate(34.779)" fill="#fff"/>
  <path id="Path_2563" data-name="Path 2563" d="M39.771,12.7H29.1v6.248h9.447c3.048,0,3.048,0,2.59,3.2H25.6V.2H41.143V3.4H29.1V9.038H39.771Z" transform="translate(13.409 0.105)" fill="#fff"/>
  <path id="Path_2564" data-name="Path 2564" d="M45.57,11.323c-2.133-2.438-4.114-4.876-6.1-7.162A3.716,3.716,0,0,1,38.56.5a3.18,3.18,0,0,1,3.657,1.219c1.829,2.286,3.809,4.571,5.79,6.857,1.981-2.286,3.962-4.419,5.638-6.7A3.134,3.134,0,0,1,57.455.352a3.441,3.441,0,0,1-.762,3.5c-2.133,2.438-4.114,4.876-6.4,7.467,1.981,2.438,3.962,4.876,6.1,7.162a3.883,3.883,0,0,1,1.067,3.809c-1.371.3-2.59.3-3.657-1.067-1.829-2.438-3.809-4.571-5.943-7.009-1.981,2.286-3.962,4.419-5.638,6.7a3.262,3.262,0,0,1-3.657,1.371,3.642,3.642,0,0,1,.762-3.657C41.455,16.2,43.436,13.761,45.57,11.323Z" transform="translate(20.105 0.106)" fill="#fff"/>
  <path id="Path_2565" data-name="Path 2565" d="M53.6.323c3.657,0,7.162-.152,10.666,0a6.9,6.9,0,0,1,6.4,7.162,7.008,7.008,0,0,1-7.314,6.7H57.1v7.924H53.6Zm3.5,10.514c2.438,0,4.571.152,6.857,0a3.735,3.735,0,0,0,3.352-3.352c.152-1.676-1.067-3.657-2.9-3.657-2.438-.152-4.876,0-7.314,0Z" transform="translate(28.075 0.134)" fill="#fff"/>
  <path id="Path_2566" data-name="Path 2566" d="M15.695,3.652H3.657V9.29H14.324v3.352H3.657v9.6H.152C0,14.928,0,7.614,0,.3H15.695Z" transform="translate(0 0.157)" fill="#fff"/>
  <path id="Path_2567" data-name="Path 2567" d="M106.719,22.242h-3.657V3.652H95.9V.3h17.981V3.5h-7.162Z" transform="translate(50.231 0.157)" fill="#fff"/>
  <path id="Path_2568" data-name="Path 2568" d="M12.752.3h3.5V19.043H25.7c3.048,0,3.048,0,2.59,3.2H12.6C12.752,14.928,12.752,7.614,12.752.3Z" transform="translate(6.6 0.157)" fill="#fff"/>
</svg>
