<svg id="Group_2455" data-name="Group 2455" xmlns="http://www.w3.org/2000/svg" width="80.63" height="57.349" viewBox="0 0 80.63 57.349">
  <path id="Path_2583" data-name="Path 2583" d="M0,55.993V52.132A3.36,3.36,0,0,1,1.136,51.9c6.132-1.363,12.378-2.612,18.511-3.975,5.224-1.136,10.561-2.271,15.785-3.407,5.678-1.249,11.47-2.385,17.148-3.634,6.132-1.363,12.265-2.612,18.511-3.861.681-.114,1.363-.341,2.044-.454A4.974,4.974,0,0,0,77,31.918V27.829c-.114.114-.227.114-.454.227A9.1,9.1,0,0,1,72,29.306a4.554,4.554,0,0,1-3.52-1.476,5.077,5.077,0,0,1-1.249-2.612,5.529,5.529,0,0,1-.114-1.363V13.066c1.249-.227,2.385-.568,3.634-.795V22.719a3.354,3.354,0,0,0,.227,1.476,1.94,1.94,0,0,0,1.931,1.363,3.829,3.829,0,0,0,3.975-3.748V10.795c1.249-.227,2.385-.568,3.634-.795V31.918a8.438,8.438,0,0,1-6.7,8.29c-6.019,1.249-12.038,2.5-17.943,3.861-6.019,1.249-12.038,2.612-18.057,3.861-5.451,1.136-10.789,2.271-16.24,3.407C16.921,52.359,12.151,53.381,7.5,54.29c-2.385.454-4.77,1.022-7.154,1.476C.341,55.993.227,55.993,0,55.993Z" transform="translate(0 1.356)" fill="#fff"/>
  <path id="Path_2584" data-name="Path 2584" d="M3.72,28.164c.114-.114.227-.114.454-.227A8.351,8.351,0,0,1,8.831,26.8,4.591,4.591,0,0,1,13.487,31a5.529,5.529,0,0,1,.114,1.363V43.154c-1.249.227-2.385.454-3.634.795V33.5a5.7,5.7,0,0,0-.227-1.363,1.96,1.96,0,0,0-2.271-1.476,2.139,2.139,0,0,0-.909.227,3.674,3.674,0,0,0-2.726,3.52V45.425c-1.249.227-2.385.568-3.634.795V24.53a9.049,9.049,0,0,1,1.7-5.337,7.922,7.922,0,0,1,4.883-3.18c5.224-1.136,10.334-2.271,15.558-3.293C27.8,11.583,33.247,10.448,38.7,9.2L55.051,5.792C60.275,4.656,65.612,3.52,70.836,2.385,73.789,1.476,77.082.795,80.376,0H80.6V3.861a4.83,4.83,0,0,1-1.249.227C70.723,5.905,61.978,7.722,53.348,9.653L29.5,14.763c-6.246,1.363-12.606,2.726-18.851,3.975l-3.066.681a4.958,4.958,0,0,0-3.975,4.656V28.05C3.72,28.05,3.72,28.05,3.72,28.164Z" transform="translate(0.027)" fill="#fff"/>
  <path id="Path_2585" data-name="Path 2585" d="M43.609,33.575c-.568.114-1.022.227-1.59.341l-1.7.341a.415.415,0,0,1-.568-.227c-1.363-1.817-2.839-3.748-4.2-5.565-.795-1.022-1.476-2.044-2.271-3.066l-.341-.341V35.733c-1.249.227-2.385.568-3.634.795V19.266c1.249-.227,2.385-.568,3.634-.795,2.385,3.066,4.656,6.132,7.041,9.2h.114V16.995c1.249-.227,2.385-.568,3.52-.795h.114V32.553A3.5,3.5,0,0,0,43.609,33.575Z" transform="translate(3.974 2.197)" fill="#fff"/>
  <path id="Path_2586" data-name="Path 2586" d="M44.7,33.145V15.883c.454-.114,1.022-.227,1.476-.341l4.77-1.022a8.039,8.039,0,0,1,3.293,0,5.492,5.492,0,0,1,4.315,4.088,10.327,10.327,0,0,1-7.382,13.06A66.393,66.393,0,0,1,44.7,33.145Zm3.634-4.429a13.511,13.511,0,0,0,3.066-.795,5.119,5.119,0,0,0,3.066-3.066,6.845,6.845,0,0,0,.341-3.975A3.064,3.064,0,0,0,51.4,18.268a6.7,6.7,0,0,0-1.59.227c-.454.114-1.022.227-1.476.341Z" transform="translate(6.063 1.946)" fill="#fff"/>
  <path id="Path_2587" data-name="Path 2587" d="M28.087,19.706V36.854c-.909.227-1.7.341-2.5.568-1.363.227-2.726.568-3.975.795a6.053,6.053,0,0,1-3.18-.114,5.269,5.269,0,0,1-3.861-3.52A9.277,9.277,0,0,1,14,30.267a9.933,9.933,0,0,1,1.249-4.315,9.709,9.709,0,0,1,6.7-5c2.044-.454,3.975-.909,6.019-1.249C27.973,19.592,27.973,19.706,28.087,19.706Zm-3.634,4.315a13.511,13.511,0,0,0-3.066.795,4.324,4.324,0,0,0-2.158,1.59,6.308,6.308,0,0,0-1.022,6.132,2.932,2.932,0,0,0,2.953,2.044,17.79,17.79,0,0,0,3.407-.568C24.453,30.722,24.453,27.428,24.453,24.021Z" transform="translate(1.894 2.666)" fill="#fff"/>
</svg>
