<svg xmlns="http://www.w3.org/2000/svg" width="30" height="30" viewBox="0 0 30 30">
  <g id="Group_3742" data-name="Group 3742" transform="translate(-791 -3256)">
    <circle id="Ellipse_136" data-name="Ellipse 136" cx="15" cy="15" r="15" transform="translate(791 3256)" fill="#1e95ee"/>
    <g id="Group_4697" data-name="Group 4697" transform="translate(800.6 3265.6)">
      <path id="Path_5966" data-name="Path 5966" d="M4.169.194a3.317,3.317,0,0,1,.6.534,1.626,1.626,0,0,1-.441,2.6c-.883.627-1.068.488-1.208,1.417A2.516,2.516,0,0,1,.546,7.092L.2,7.069c.093.3.209.6.325.906,3.855-1.045,4.436.534,4.97,3.182a5.394,5.394,0,0,0,2.6-.627C6.445,9.879,6.956,8.9,6.747,8.392c-.209-.534-1.068-.418-1.7-.929A1.152,1.152,0,0,1,4.61,6.372C4.8,5.3,6.166,5.327,6.491,4.978a1.246,1.246,0,0,0,.186-.859c.046-1.6.511-1.649,2.6-2.671A5.5,5.5,0,0,0,4.169.194ZM1.01,8.81a5.558,5.558,0,0,0,3.507,2.253C4.122,9.136,3.821,8.067,1.01,8.81ZM9.952,2.145c-2.253,1.115-2.3.929-2.323,2-.023,1.254-.372,1.7-1.44,2-.952.3-.813.627.046.859,1.208.372,1.463.883,1.51,1.788.023.674.07.627,1.3,1.092A5.508,5.508,0,0,0,9.952,2.145ZM3.147.565A5.6,5.6,0,0,0,.012,6.14c.023,0,.6.046.627.046a1.64,1.64,0,0,0,1.51-1.161c.023-.116.046-.255.07-.372.186-1.3.6-1.394,1.6-2.067C4.866,1.82,4.053,1.262,3.147.565Z" transform="translate(0.015 -0.011)" fill="#fff"/>
    </g>
  </g>
</svg>
