<svg xmlns="http://www.w3.org/2000/svg" width="91.108" height="60" viewBox="0 0 91.108 60">
  <g id="Group_2456" data-name="Group 2456" transform="translate(-0.009 -0.115)">
    <path id="Path_2588" data-name="Path 2588" d="M75.662,267.864v3.149c0,1.09-.007,2.174.007,3.264a.532.532,0,0,1-.337.552,66.945,66.945,0,0,1-10.423,4.362,93.55,93.55,0,0,1-12.877,3.278c-2.145.387-4.3.689-6.471.954-1.736.208-3.486.366-5.237.43-2.554.1-5.115.187-7.669.122-2.2-.057-4.4-.294-6.593-.545a43.724,43.724,0,0,1-10.545-2.518,27.631,27.631,0,0,1-9.541-5.746,18.442,18.442,0,0,1-5.6-10.488,24.154,24.154,0,0,1-.323-5.567A21.726,21.726,0,0,1,2.3,250.848a30.98,30.98,0,0,1,7.374-9.39c.043-.036.093-.072.208-.158,0,.531-.036,1,.007,1.463a1.805,1.805,0,0,1-.531,1.435,24.6,24.6,0,0,0-5.473,11.248,17.363,17.363,0,0,0,.976,10.524,15.572,15.572,0,0,0,5.811,6.75,26.828,26.828,0,0,0,9.426,3.852c2.095.452,4.218.782,6.341,1.062,1.5.2,3.02.237,4.534.316,1.011.05,2.03.1,3.049.065,2.7-.093,5.395-.187,8.085-.359,1.808-.115,3.608-.33,5.4-.588a88.64,88.64,0,0,0,9.584-1.966,82.627,82.627,0,0,0,14.225-4.993c1.349-.631,2.654-1.363,3.981-2.044C75.4,268.007,75.5,267.95,75.662,267.864Z" transform="translate(0 -223.884)" fill="#fff"/>
    <path id="Path_2589" data-name="Path 2589" d="M335.051,40.157v-.416c0-1.313.014-2.633-.007-3.945a.74.74,0,0,1,.4-.739,18.852,18.852,0,0,0,7.08-7.669,14.2,14.2,0,0,0,1.542-7.482,14.409,14.409,0,0,0-4.175-9.2,20.971,20.971,0,0,0-7.267-4.677A37.57,37.57,0,0,0,324.254,3.8,55.556,55.556,0,0,0,313.9,3.184c-2.052.065-4.1.222-6.141.416a81.619,81.619,0,0,0-14.067,2.654,84.293,84.293,0,0,0-15.911,6.1c-.086.043-.172.079-.33.143,0-.538-.014-1.047.014-1.55.007-.1.187-.2.3-.273a68.271,68.271,0,0,1,8.164-4.168,76.557,76.557,0,0,1,14.842-4.684c2.2-.452,4.426-.818,6.657-1.1,1.987-.258,3.989-.409,5.983-.509,1.851-.093,3.709-.122,5.552-.057A48.53,48.53,0,0,1,334.484,3a26.487,26.487,0,0,1,7.791,4.4A16.809,16.809,0,0,1,348.4,17.94a19.186,19.186,0,0,1-3.867,15.029,21.258,21.258,0,0,1-9.075,7.073l-.237.086C335.194,40.135,335.158,40.135,335.051,40.157Z" transform="translate(-257.538 0)" fill="#fff"/>
    <path id="Path_2590" data-name="Path 2590" d="M716.345,314.374a8.853,8.853,0,0,1-4.34,2.582,10.712,10.712,0,0,1-6.872-.495,7.331,7.331,0,0,1-4.24-5.194,12.51,12.51,0,0,1,.394-7.977,7.736,7.736,0,0,1,6.227-4.907,7.947,7.947,0,0,1,5.057.667,7.724,7.724,0,0,1,3.867,4.971,15.622,15.622,0,0,1,.488,4.892c0,.086-.143.194-.244.251-.072.043-.186.007-.28.007H705.534c-.531,0-.552.022-.495.545.308,2.762,2.3,3.831,4.634,3.716a5.4,5.4,0,0,0,3.666-1.557.322.322,0,0,1,.316-.043C714.558,312.667,715.441,313.513,716.345,314.374Zm-7.661-8.307c1.112,0,2.224-.007,3.329.007.258,0,.352-.093.308-.337-.05-.294-.079-.6-.151-.882a3.261,3.261,0,0,0-2.188-2.647,3.733,3.733,0,0,0-4.957,3.529c-.014.244.057.337.316.337C706.459,306.06,707.571,306.067,708.683,306.067Z" transform="translate(-650.173 -276.743)" fill="#fff"/>
    <path id="Path_2591" data-name="Path 2591" d="M309.207,311.9c0-2.92.007-5.832-.007-8.752,0-.316.065-.445.409-.445,3.264.021,6.528.007,9.792.043a4.793,4.793,0,0,1,4.749,4.075,10.392,10.392,0,0,1,.143,1.564c.014,4.1,0,8.2.014,12.3,0,.337-.072.452-.43.452q-1.883-.032-3.766,0c-.337.007-.423-.093-.423-.423q.011-6.133.007-12.267a3.763,3.763,0,0,0-.036-.753,1.5,1.5,0,0,0-1.449-1.263c-1.37-.043-2.747-.036-4.125-.05-.215,0-.3.093-.294.3.007.129,0,.266,0,.395v13.515c0,.524,0,.524-.531.524-1.205,0-2.418-.014-3.623.007-.359.007-.43-.122-.43-.452C309.214,317.75,309.207,314.823,309.207,311.9Z" transform="translate(-287.01 -280.879)" fill="#fff"/>
    <path id="Path_2592" data-name="Path 2592" d="M569.959,241.786v-9.111c0-.473,0-.473.473-.473,1.219,0,2.439.014,3.659-.007.337-.007.452.079.445.43-.022,1.384-.007,2.776-.007,4.161,0,.466,0,.473.481.473.882,0,1.772.007,2.654-.007.294-.007.394.093.387.395-.014.954-.021,1.915,0,2.869.007.352-.129.423-.437.416-.882-.014-1.772.007-2.654-.007-.344-.007-.445.115-.445.459.014,2.891.007,5.789.007,8.68a1.56,1.56,0,0,0,1.779,1.786c.481,0,.954.007,1.435,0,.237-.007.316.079.316.316-.007,1.055-.007,2.1,0,3.156,0,.194-.036.33-.272.323-1.22-.036-2.446.029-3.651-.115a4.651,4.651,0,0,1-4.068-3.953,8.7,8.7,0,0,1-.1-1.5C569.952,247.31,569.959,244.548,569.959,241.786Z" transform="translate(-529.06 -215.431)" fill="#fff"/>
    <path id="Path_2593" data-name="Path 2593" d="M973.949,208.287v12.4c0,.509,0,.509-.5.445a4.35,4.35,0,0,1-3.96-3.4,7.622,7.622,0,0,1-.179-1.557c-.014-6.822-.007-13.651-.014-20.474,0-.308.079-.416.4-.409,1.255.014,2.511.007,3.766.007.481,0,.481,0,.481.473Z" transform="translate(-899.757 -181.179)" fill="#fff"/>
    <path id="Path_2594" data-name="Path 2594" d="M189.827,312.092v8.9c0,.251-.029.423-.344.373a5.719,5.719,0,0,1-2.583-.983,4.128,4.128,0,0,1-1.679-3.415c-.036-4.6-.014-9.2-.022-13.8,0-.3.122-.359.38-.359,1.27.007,2.532.014,3.8-.007.344-.007.452.093.445.445C189.82,306.189,189.827,309.137,189.827,312.092Z" transform="translate(-171.906 -280.967)" fill="#fff"/>
    <path id="Path_2595" data-name="Path 2595" d="M187.5,208.7c-.66,0-1.313-.007-1.973.007-.251.007-.33-.086-.33-.33.007-1.241.014-2.489,0-3.73,0-.273.093-.344.352-.344,1.306.014,2.6.014,3.91,0,.287,0,.366.093.366.373-.014,1.234-.014,2.461,0,3.694,0,.273-.093.352-.352.344C188.816,208.683,188.163,208.7,187.5,208.7Z" transform="translate(-171.906 -189.538)" fill="#fff"/>
    <path id="Path_2596" data-name="Path 2596" d="M1082.215,199.258a1.8,1.8,0,0,1-1.815-1.815,1.838,1.838,0,0,1,1.844-1.844,1.887,1.887,0,0,1,1.837,1.829A1.868,1.868,0,0,1,1082.215,199.258Zm-.014-.237a1.6,1.6,0,0,0,1.636-1.585,1.649,1.649,0,0,0-1.629-1.621,1.619,1.619,0,0,0-1.578,1.614A1.566,1.566,0,0,0,1082.2,199.021Z" transform="translate(-1002.888 -181.461)" fill="#fff"/>
    <path id="Path_2597" data-name="Path 2597" d="M1096.195,206.693c.158.28.3.545.473.854a.3.3,0,0,1-.473-.108c-.122-.194-.222-.395-.359-.581a.723.723,0,0,0-.266-.143.942.942,0,0,0-.122.258c-.021.143.014.294-.014.43-.021.079-.122.144-.186.208-.065-.065-.179-.136-.187-.2-.014-.6-.014-1.191,0-1.793,0-.079.108-.215.172-.215a3.353,3.353,0,0,1,.889.029.635.635,0,0,1,.273,1.1C1096.345,206.578,1096.274,206.621,1096.195,206.693Zm-.5-1.012c-.222-.043-.3.108-.294.352s.007.445.33.416c.244-.021.488-.043.5-.38S1096,205.7,1095.693,205.682Z" transform="translate(-1016.487 -190.547)" fill="#fff"/>
  </g>
</svg>
