<svg xmlns="http://www.w3.org/2000/svg" width="253.736" height="46.054" viewBox="0 0 253.736 46.054">
  <g id="Group_5270" data-name="Group 5270" transform="translate(-0.038 0.135)">
    <path id="Path_7256" data-name="Path 7256" d="M971.286,18.439c-.474.384-.987.743-1.435,1.153-1.038.961-2.05,1.935-3.037,2.935a1.351,1.351,0,0,0-.308.884c-.013,2.9.192,5.818-.013,8.7a22.931,22.931,0,0,1-2.909,9.727,13.054,13.054,0,0,1-2.038,2.691,5.021,5.021,0,0,1-2,1.179,2.4,2.4,0,0,1-3.217-1.615,10.139,10.139,0,0,1-.474-4.421,25.7,25.7,0,0,1,4-11.162.7.7,0,0,0-.128-1.064c-.795-.769-1.5-1.64-2.268-2.435a1.7,1.7,0,0,0-.833-.5,11.856,11.856,0,0,0-5.434.487c-.141.038-.269.282-.308.461-.141.73-.231,1.474-.372,2.2a1.3,1.3,0,0,1-.256.641,4.172,4.172,0,0,1-.782.525c-.154-.256-.41-.487-.449-.756-.1-.654-.1-1.32-.141-1.974-.013-.141-.026-.295-.038-.513-.551.09-1.064.205-1.589.243a12.437,12.437,0,0,1-5.357-.654,5.552,5.552,0,0,1-1.871-1.166A2.241,2.241,0,0,1,941,20.157a7.5,7.5,0,0,1,6.984,1.435c.154.128.32.256.577.474a6.566,6.566,0,0,0-1.217-3.178c-.551-.769-.538-.833.308-1.269.4-.205.807-.4,1.217-.564a.755.755,0,0,1,1.128.487c.333,1.179.666,2.371.9,3.576a18.789,18.789,0,0,1,.167,2.384c1.628-.179,3.242-.346,4.857-.525-.295-.628-.666-1.307-.936-2.038A15.963,15.963,0,0,1,962.751.792,10.952,10.952,0,0,1,965.6-.092c.692-.154.923.1.82.82-.179,1.371-.449,2.73-.666,4.1a38.594,38.594,0,0,0-.179,9.65c.167,1.91.4,3.819.6,5.729.013.1.038.192.077.423.243-.231.423-.4.6-.564a33.888,33.888,0,0,1,6.664-5.267,14.23,14.23,0,0,1,2.589-1.051c.256-.09.589.09.9.141a2.939,2.939,0,0,1-.372.782,7.635,7.635,0,0,0-1.82,3.614,7.687,7.687,0,0,0,.5,5.126,3.694,3.694,0,0,0,4.46,2.089,3.808,3.808,0,0,0,2.589-2.935,6.271,6.271,0,0,0,.09-2.884,18.122,18.122,0,0,1-2.14-.256,3.374,3.374,0,0,1-2.9-2.7,2.377,2.377,0,0,1,3.089-2.807,4.848,4.848,0,0,1,3.14,3.076c.256.628.564.743,1.128.538,1.089-.423,2.179-.833,3.281-1.256a.784.784,0,0,0,.513-.846c0-1.986-.038-3.973.09-5.959a13.181,13.181,0,0,1,2.23-7.049A6.269,6.269,0,0,1,992.688.741a2.607,2.607,0,0,1,4,1.653,9.346,9.346,0,0,1,.064,4.127,17.528,17.528,0,0,1-4.127,8.74,1.509,1.509,0,0,0-.372.9c-.026,2.051-.013,4.1-.013,6.152a1.225,1.225,0,0,0,.218.73c.192-.308.4-.615.577-.936,1.179-2.025,2.332-4.075,3.537-6.087a6.913,6.913,0,0,1,1.358-1.679,2.074,2.074,0,0,1,3.64,1.307,7.642,7.642,0,0,1,.1,1.2c.013,2.371,0,4.742,0,7.113v.692l.154.077a4.937,4.937,0,0,0,.487-.564c1.845-2.922,3.7-5.844,5.536-8.766a3.083,3.083,0,0,1,2.794-1.717,1.627,1.627,0,0,1,1.653,1.089,6.987,6.987,0,0,1,.372,2c.051,1.794.013,3.588.013,5.383v.807c.051.026.115.038.167.064a6.728,6.728,0,0,0,.423-.628c1.358-2.345,2.7-4.691,4.088-7.023a2.961,2.961,0,0,1,2.614-1.692,1.69,1.69,0,0,1,1.833,1.282,7.2,7.2,0,0,1,.269,1.884c.026,2.473.013,4.96.013,7.433,0,.243.038.5.064.923.32-.359.551-.564.73-.807a56.71,56.71,0,0,0,6-10.406,2.866,2.866,0,0,1,.525-.666,4.043,4.043,0,0,1,.564.692c.833,1.679,1.64,3.371,2.448,5.024,1.384-1.012,2.678-2.038,4.024-2.96a13.589,13.589,0,0,1,5.562-2.32,6.887,6.887,0,0,1,1.153-.064c.436,0,.526.243.32.59a3.6,3.6,0,0,1-.423.564,7.969,7.969,0,0,0-1.5,7.818,3.8,3.8,0,0,0,4.793,2.819,4.237,4.237,0,0,0,2.73-3.9c.051-.666.013-1.346.013-2.012-.743-.038-1.41-.051-2.063-.115a3.315,3.315,0,0,1-3.089-2.845,2.377,2.377,0,0,1,3.089-2.7,4.421,4.421,0,0,1,2.537,1.935c.295.436.525.923.833,1.461.487-.282,1-.538,1.461-.859.82-.577,1.6-1.2,2.409-1.807a4.137,4.137,0,0,1,2.653-.961,1.889,1.889,0,0,1,2,1.615,6.46,6.46,0,0,1,.141,1.4c.013,1.884,0,3.755.013,5.639,0,.218.038.449.051.666l.167.038c.141-.243.295-.474.436-.73,1.256-2.256,2.486-4.524,3.793-6.754a4.791,4.791,0,0,1,1.333-1.448,2.19,2.19,0,0,1,3.563,1.538,8.541,8.541,0,0,1,.1,1.4c.013,2.461,0,4.908.013,7.369a2.735,2.735,0,0,0,.256.795,2.73,2.73,0,0,0,.833-.359c.577-.564,1.1-1.192,1.653-1.794.307-.333.654-.6,1.1-.269s.269.718.038,1.077c-.73,1.153-1.435,2.332-2.2,3.447a3.249,3.249,0,0,1-2.1,1.474,2.763,2.763,0,0,1-3.486-2.935c-.038-2.409,0-4.831-.026-7.241a3.767,3.767,0,0,0-.256-.974,3.814,3.814,0,0,0-.654.718c-1.512,2.871-3,5.754-4.511,8.612a5.775,5.775,0,0,1-.9,1.307,1.915,1.915,0,0,1-2.127.449c-.718-.256-.795-.948-.859-1.589a14.138,14.138,0,0,1-.026-1.474c0-2.6.013-5.216-.013-7.818a1.282,1.282,0,0,0-.384-.974c-.205-.128-.7.026-.987.192-.948.577-1.858,1.2-2.768,1.845a.728.728,0,0,0-.141.538,11.11,11.11,0,0,1-.7,5.331,6.687,6.687,0,0,1-8.279,3.755c-2.589-.884-3.793-2.922-4.268-5.459a8.308,8.308,0,0,1,1.077-6.152,2.311,2.311,0,0,0,.1-.384,16,16,0,0,0-2.115,1.153c-1.128.833-2.191,1.769-3.281,2.653a.68.68,0,0,0-.205.884,6.878,6.878,0,0,1,.269,4.639,4.274,4.274,0,0,1-2.089,2.576,2.663,2.663,0,0,1-3.025-.038,2.745,2.745,0,0,1-.948-2.935,7.046,7.046,0,0,1,1.743-3.23.836.836,0,0,0,.1-1.128c-.359-.628-.692-1.269-1.1-2l-.436.654c-1.487,2.294-2.973,4.588-4.485,6.856a7.606,7.606,0,0,1-1.307,1.487,3.328,3.328,0,0,1-1.269.692,1.96,1.96,0,0,1-2.55-2.063c-.051-1.794-.026-3.588-.026-5.383,0-.961.013-1.922-.013-2.884a6.536,6.536,0,0,0-.1-.859c-.064-.026-.128-.051-.205-.077a10.454,10.454,0,0,0-.7.974c-1.461,2.743-2.909,5.511-4.357,8.266a6.646,6.646,0,0,1-.449.846,4.22,4.22,0,0,1-.859.923,1.585,1.585,0,0,1-2.64-1.294c-.039-.7-.026-1.41-.026-2.115V18.785a3.265,3.265,0,0,0-.051-.7c-.077-.32-.295-.372-.513-.154a4.371,4.371,0,0,0-.538.718c-1.858,2.871-3.691,5.741-5.562,8.6a4.915,4.915,0,0,1-1.051,1.192,1.94,1.94,0,0,1-3.165-1.115,5.418,5.418,0,0,1-.128-1.2c-.013-2.537,0-5.088-.013-7.625a7.322,7.322,0,0,0-.1-.91c-.064-.026-.128-.038-.2-.064a6.047,6.047,0,0,0-.666.871c-1.512,2.768-3,5.549-4.5,8.33a12.029,12.029,0,0,1-.807,1.371,1.71,1.71,0,0,1-2.038.666,1.545,1.545,0,0,1-.987-1.64V18.055c-.9.333-1.717.666-2.55.961-.5.167-1.192.141-1.474.474-.244.295-.026.974-.026,1.487a8.031,8.031,0,0,1-2.589,6.254c-2.871,2.589-8.894,2.627-10.56-3.358a9.321,9.321,0,0,1-.09-4.562c.064-.269.115-.538.179-.795A.413.413,0,0,0,971.286,18.439Zm-10.009,7.882c.423-.564.833-1.051,1.166-1.589a1.5,1.5,0,0,0,.231-.936c-.141-1.179-.346-2.358-.551-3.537a28.767,28.767,0,0,1,.038-10.368,38.845,38.845,0,0,1,2.422-7.536,9.08,9.08,0,0,0,.269-.923,3.785,3.785,0,0,0-2.435,1.025,13.048,13.048,0,0,0-3.435,4.793,19.667,19.667,0,0,0-1.358,10.714A15.668,15.668,0,0,0,961.277,26.321Zm1.9.333c-.359.474-.6.782-.833,1.1a21.26,21.26,0,0,0-4.319,11.227,7.632,7.632,0,0,0,.295,2.755,1.631,1.631,0,0,0,2.768.756,5.793,5.793,0,0,0,1.243-1.589,14.349,14.349,0,0,0,1.41-5.2C964.11,32.729,963.61,29.807,963.174,26.654Zm29.155-13.546a1.233,1.233,0,0,0,.231-.282c.461-.974.987-1.935,1.358-2.948a14.554,14.554,0,0,0,.807-6.985c-.038-.32-.359-.59-.551-.9-.295.192-.718.32-.871.59a6.209,6.209,0,0,0-.628,1.73A35.967,35.967,0,0,0,992.329,13.108ZM947.937,24.322c.026-.077.051-.167.077-.243a6.788,6.788,0,0,0-2.55-2.23,3.563,3.563,0,0,0-1.538-.282,1.261,1.261,0,0,0-.936.577,1.436,1.436,0,0,0,.231,1.2,2.353,2.353,0,0,0,1.294.73C945.643,24.232,946.8,24.245,947.937,24.322Zm82.391-.756a4.326,4.326,0,0,0-.525.833,8.6,8.6,0,0,0-.538,1.922c-.026.243.423.538.654.82.244-.231.6-.423.7-.7A4.046,4.046,0,0,0,1030.327,23.566Zm18.172-5.741.192-.192a20.33,20.33,0,0,0-1.448-1.525.786.786,0,0,0-1.192.026.948.948,0,0,0,.346,1.282A2.505,2.505,0,0,0,1048.5,17.824Zm-66.615.077c.026-.064.064-.128.09-.192a2.793,2.793,0,0,0-1.6-1.756.889.889,0,0,0-.795.141,1,1,0,0,0-.09.859,1.212,1.212,0,0,0,.679.6A12.73,12.73,0,0,0,981.885,17.9Z" transform="translate(-818.878)" fill="#fff"/>
    <path id="Path_7257" data-name="Path 7257" d="M12.387,20.855c.615-.577,1.076-1.077,1.6-1.5,1.871-1.474,3.729-2.973,5.69-4.345a10.645,10.645,0,0,1,2.7-1.077c.218-.077.513.09.782.141a3.11,3.11,0,0,1-.295.73,7.812,7.812,0,0,0-1.884,3.652,8.037,8.037,0,0,0,.346,4.844,3.776,3.776,0,0,0,4.652,2.4,3.733,3.733,0,0,0,2.563-3.024,24.68,24.68,0,0,0,.231-2.768,19.5,19.5,0,0,1-2.256-.269,3.36,3.36,0,0,1-2.909-2.691,2.376,2.376,0,0,1,3.063-2.832,4.981,4.981,0,0,1,3.063,2.819c.154.295.282.615.423.948a11.525,11.525,0,0,0,4.268-1.538,1.02,1.02,0,0,0,.308-.743c.051-1.948-.026-3.9.09-5.831a13.614,13.614,0,0,1,2.281-7.228A4.466,4.466,0,0,1,39.492.684a2.531,2.531,0,0,1,3.242,1.538A6.954,6.954,0,0,1,43.08,5.5,17.211,17.211,0,0,1,38.838,15.4a1.721,1.721,0,0,0-.436,1.217c.026,1.948.013,3.883.013,5.831a1.6,1.6,0,0,0,.205.807c.192-.282.384-.564.551-.859,1.141-1.974,2.268-3.96,3.435-5.921a11.893,11.893,0,0,1,1.166-1.6,3.009,3.009,0,0,1,.91-.692,1.963,1.963,0,0,1,3.024,1.435,6.973,6.973,0,0,1,.141,1.461c.013,2.4,0,4.78.013,7.177a1.288,1.288,0,0,0,.192.718,7.15,7.15,0,0,0,.487-.6c1.769-2.794,3.524-5.6,5.293-8.394a7.155,7.155,0,0,1,1-1.32,2.52,2.52,0,0,1,2.6-.628,1.994,1.994,0,0,1,1.333,2c.077,1.7.077,3.409.1,5.126a11.112,11.112,0,0,0,.154,2.115c.141-.205.308-.4.436-.615,1.358-2.345,2.7-4.691,4.088-7.023a2.992,2.992,0,0,1,2.6-1.7,1.69,1.69,0,0,1,1.82,1.217,6.274,6.274,0,0,1,.282,1.884c.026,2.5.013,5,.013,7.5,0,.243.038.5.064.936.32-.359.551-.564.73-.807a55.975,55.975,0,0,0,6-10.406,3.531,3.531,0,0,1,.577-.679,6.291,6.291,0,0,1,.513.679c.833,1.679,1.64,3.371,2.461,5.075.936-.73,1.794-1.435,2.678-2.089A15.86,15.86,0,0,1,88.165,14a6.888,6.888,0,0,1,1.153-.064c.423,0,.538.231.333.577a3.6,3.6,0,0,1-.423.564,7.942,7.942,0,0,0-1.487,7.869,3.8,3.8,0,0,0,4.78,2.768,4.234,4.234,0,0,0,2.743-3.9c.051-.666.013-1.346.013-2.012-.756-.038-1.41-.051-2.063-.128A3.313,3.313,0,0,1,90.138,16.9a2.38,2.38,0,0,1,3.089-2.755,4.421,4.421,0,0,1,2.537,1.935c.295.436.525.923.846,1.474.487-.282,1-.538,1.448-.859.833-.59,1.64-1.23,2.461-1.845a4.06,4.06,0,0,1,2.6-.923,1.9,1.9,0,0,1,2,1.615A6.973,6.973,0,0,1,105.26,17c.013,1.833,0,3.678.013,5.511a7.024,7.024,0,0,0,.064.73l.167.038c.128-.231.269-.449.4-.679,1.256-2.256,2.5-4.511,3.781-6.754a5.326,5.326,0,0,1,1.153-1.358,2.365,2.365,0,0,1,2.461-.423,2.16,2.16,0,0,1,1.32,1.961,9.494,9.494,0,0,1,.09,1.346c.013,2.409,0,4.831.013,7.241a3.087,3.087,0,0,0,.269.846,3.292,3.292,0,0,0,.884-.41c.525-.5.987-1.064,1.474-1.6.141-.154.282-.372.474-.423a1.013,1.013,0,0,1,.756.038.772.772,0,0,1,.192.7,15.884,15.884,0,0,1-3.165,4.626,2.9,2.9,0,0,1-3.242.423,2.7,2.7,0,0,1-1.538-2.678c-.038-2.435-.013-4.87-.026-7.3a4.815,4.815,0,0,0-.205-.948,3.8,3.8,0,0,0-.718.718c-1.512,2.845-2.986,5.7-4.485,8.561a6.128,6.128,0,0,1-.795,1.23,1.95,1.95,0,0,1-2.217.577c-.807-.269-.859-1.038-.923-1.756-.026-.256-.013-.513-.013-.769V18.049c0-1.077-.461-1.346-1.346-.795-.961.6-1.9,1.23-2.819,1.884-.115.077-.141.359-.128.551a10.347,10.347,0,0,1-1,5.908c-2.4,4.357-8.612,4.767-11.137.654a8.467,8.467,0,0,1-.269-8.727l.269-.5c0-.013-.013-.038-.064-.192a18.6,18.6,0,0,0-2.05,1.128c-1.1.807-2.115,1.717-3.191,2.576a.706.706,0,0,0-.231.936,7.048,7.048,0,0,1,.4,4.139,4.464,4.464,0,0,1-2.127,3,2.674,2.674,0,0,1-3.127,0,2.759,2.759,0,0,1-.923-3,7.459,7.459,0,0,1,1.781-3.217.729.729,0,0,0,.1-.961c-.384-.654-.73-1.333-1.141-2.115-.192.295-.32.487-.436.679-1.487,2.294-2.96,4.588-4.485,6.856a8,8,0,0,1-1.307,1.487,3.015,3.015,0,0,1-1.217.679,1.978,1.978,0,0,1-2.6-2.076c-.051-2.051-.026-4.1-.026-6.152,0-.73.013-1.448-.013-2.179a3.982,3.982,0,0,0-.128-.782,1.554,1.554,0,0,0-.179-.064,6.966,6.966,0,0,0-.679.936Q61.1,22.97,58.856,27.25a3.727,3.727,0,0,1-.628,1.025,2.976,2.976,0,0,1-1.269.769,1.422,1.422,0,0,1-1.91-1.448c-.026-.333-.026-.679-.026-1.025V19.394a2.288,2.288,0,0,0-.013-.513c-.051-.282-.154-.538-.231-.82a3.4,3.4,0,0,0-.692.564c-1.922,2.948-3.819,5.921-5.741,8.868a4.606,4.606,0,0,1-1.1,1.23,1.924,1.924,0,0,1-3.076-1.115,5.277,5.277,0,0,1-.141-1.269c-.013-2.525,0-5.037-.013-7.561,0-.308-.051-.615-.077-.923a1.424,1.424,0,0,1-.205-.09,7.618,7.618,0,0,0-.692.9c-1.525,2.794-3.024,5.588-4.537,8.394a11.333,11.333,0,0,1-.743,1.269,1.719,1.719,0,0,1-2.025.7,1.541,1.541,0,0,1-1-1.679c-.013-2.755,0-5.511,0-8.266v-.679c-1.32.4-2.576.769-3.819,1.192a.705.705,0,0,0-.269.564A9.545,9.545,0,0,1,29.6,25.61a6.757,6.757,0,0,1-7.523,3.319,5.877,5.877,0,0,1-4.011-3.4,9.213,9.213,0,0,1-.628-6c.051-.269.115-.538.205-.948a11.435,11.435,0,0,0-.974.718c-1.243,1.141-2.473,2.294-3.678,3.473a1.262,1.262,0,0,0-.282.833c-.013,2.9.179,5.818-.013,8.7A22.65,22.65,0,0,1,9.76,42.1,15.446,15.446,0,0,1,7.479,45a4.133,4.133,0,0,1-1.7.948A2.423,2.423,0,0,1,2.519,44.3,10.224,10.224,0,0,1,2.07,39.81,25.977,25.977,0,0,1,6.043,28.776.752.752,0,0,0,5.9,27.661,18.3,18.3,0,0,1,1.135,21.1,15.959,15.959,0,0,1,9.337.773,9.353,9.353,0,0,1,11.785.107c.666-.115.884.115.795.795-.192,1.4-.449,2.781-.679,4.165a38.707,38.707,0,0,0-.167,9.586C11.913,16.652,12.156,18.664,12.387,20.855ZM11.054,1.619a3.674,3.674,0,0,0-2.435,1,12.329,12.329,0,0,0-3.2,4.268,19.68,19.68,0,0,0-1.333,12.8,15.017,15.017,0,0,0,3.383,6.818c.423-.564.846-1.077,1.192-1.628a1.41,1.41,0,0,0,.218-.871c-.154-1.179-.346-2.358-.551-3.537a29.192,29.192,0,0,1-.09-9.676,36.858,36.858,0,0,1,2.537-8.228C10.875,2.3,10.939,2,11.054,1.619ZM9.375,27.02c-.115.026-.167.026-.192.051-.218.282-.449.564-.666.859A21.18,21.18,0,0,0,4.211,39.169a7.923,7.923,0,0,0,.282,2.755,1.643,1.643,0,0,0,2.768.769A5.558,5.558,0,0,0,8.5,41.1a14.349,14.349,0,0,0,1.41-5.2A33.931,33.931,0,0,0,9.375,27.02ZM38.389,13.256c.051.013.09.026.141.038a1.365,1.365,0,0,0,.243-.359c.577-1.371,1.23-2.717,1.692-4.114A13.053,13.053,0,0,0,40.9,3.067a1.207,1.207,0,0,0-.525-.833c-.423-.218-.718.167-.884.513a4.108,4.108,0,0,0-.5,1.294c-.231,1.7-.461,3.422-.577,5.126C38.313,10.539,38.389,11.9,38.389,13.256ZM76.5,23.713a7.648,7.648,0,0,0-.641,1.1,5.726,5.726,0,0,0-.41,1.692c0,.269.423.538.666.807.243-.231.59-.436.692-.718A4.272,4.272,0,0,0,76.5,23.713ZM94.7,18l.167-.205a18.268,18.268,0,0,0-1.474-1.512.742.742,0,0,0-1.179.077c-.32.474-.064.91.32,1.23A2.548,2.548,0,0,0,94.7,18Zm-66.628.09c.026-.064.064-.128.09-.192a2.775,2.775,0,0,0-1.6-1.743.947.947,0,0,0-.795.141.869.869,0,0,0-.1.795,1.349,1.349,0,0,0,.7.654A10.568,10.568,0,0,0,28.073,18.087Z" transform="translate(0 -0.186)" fill="#fff"/>
  </g>
</svg>
