<svg id="Group_2454" data-name="Group 2454" xmlns="http://www.w3.org/2000/svg" width="163.793" height="30" viewBox="0 0 163.793 30">
  <path id="Path_2569" data-name="Path 2569" d="M.015,18.422a.422.422,0,0,1,.115-.345,4.8,4.8,0,0,1,.46-1.149c1.724-2.874,3.563-5.747,5.4-8.736A2.854,2.854,0,0,1,9.21,6.813a2.929,2.929,0,0,1,2.414,2.414,3.236,3.236,0,0,1-.46,2.3C9.9,13.48,8.751,15.434,7.486,17.388c-.575.92-1.149,1.954-1.839,2.874a2.854,2.854,0,0,1-3.218,1.379A3.059,3.059,0,0,1,.015,19.112c0-.115,0-.23-.115-.23C.015,18.767.015,18.652.015,18.422Z" transform="translate(0.1 1.003)" fill="#fff"/>
  <path id="Path_2570" data-name="Path 2570" d="M143.79,21.1H142.41V17.308a1.458,1.458,0,0,0-.115-.69,1.25,1.25,0,0,0-1.264-1.034,1.543,1.543,0,0,0-1.724.8,3.061,3.061,0,0,0-.345,1.379v3.448h-1.379V16.963a1.486,1.486,0,0,0-1.954-1.264,1.639,1.639,0,0,0-1.264,1.724v3.793H133.1V14.434h1.264v.92a2.345,2.345,0,0,1,2.3-1.034,2.171,2.171,0,0,1,2.069,1.264c.23-.23.46-.575.69-.8a2.623,2.623,0,0,1,4.253,1.494c0,.115.115.23.115.345Z" transform="translate(20.003 2.117)" fill="#fff"/>
  <path id="Path_2571" data-name="Path 2571" d="M90.168,0Z" transform="translate(12.936)" fill="#fff"/>
  <path id="Path_2572" data-name="Path 2572" d="M40.978,21.76H36.61V13.829a3.209,3.209,0,0,0-.69-2.069,2.4,2.4,0,0,0-4.023.92,4.132,4.132,0,0,0-.23,1.264V21.76H27.3V7.047h4.368V9a6.317,6.317,0,0,1,.8-1.034A4.5,4.5,0,0,1,35.806,6.7a6,6,0,0,1,2.414.46,4.511,4.511,0,0,1,2.069,2.069,6.317,6.317,0,0,1,.8-1.034A5.048,5.048,0,0,1,45.231,6.7,5.142,5.142,0,0,1,48.1,7.737a5.861,5.861,0,0,1,1.954,3.218,8.606,8.606,0,0,1,.23,2.414V21.76H45.921V13.944a4.612,4.612,0,0,0-.345-1.724,2.314,2.314,0,0,0-2.414-1.264,2.194,2.194,0,0,0-1.954,1.839,3.91,3.91,0,0,0-.115,1.149V21.53C40.978,21.645,40.978,21.645,40.978,21.76Z" transform="translate(4.194 0.999)" fill="#fff"/>
  <path id="Path_2573" data-name="Path 2573" d="M87.314,0h4.253V22.759H87.2V21.034a5.31,5.31,0,0,1-.8.8,4.926,4.926,0,0,1-2.759,1.149A6.86,6.86,0,0,1,78,21.034,8.052,8.052,0,0,1,75.82,16.9a8.424,8.424,0,0,1,.69-5.287,6.97,6.97,0,0,1,6.9-4.023,5.626,5.626,0,0,1,3.218,1.264c.23.23.345.46.575.69V.115C87.314.23,87.314.115,87.314,0Zm-6.9,15.4a1.458,1.458,0,0,0,.115.69,3.366,3.366,0,0,0,6.667-.92,3.377,3.377,0,0,0-4.138-3.333A3.591,3.591,0,0,0,80.418,15.4Z" transform="translate(11.421)" fill="#fff"/>
  <path id="Path_2574" data-name="Path 2574" d="M106.822,21.744h-4.368V20.135a5,5,0,0,1-.8.69,6.007,6.007,0,0,1-4.138,1.149,7.7,7.7,0,0,1-5.747-3.333A8.814,8.814,0,0,1,90.5,13.928a7.241,7.241,0,0,1,1.954-4.713A7.422,7.422,0,0,1,98.431,6.8a5.333,5.333,0,0,1,3.218,1.264c.23.23.46.345.575.46V7.146h4.368C106.822,11.974,106.822,16.8,106.822,21.744Zm-7.931-10.8a3.54,3.54,0,0,0-1.494.345,3.377,3.377,0,0,0-1.954,4.483,3.7,3.7,0,0,0,3.678,2.184,3.466,3.466,0,0,0,3.218-4.138A3.293,3.293,0,0,0,98.891,10.939Z" transform="translate(13.638 1.015)" fill="#fff"/>
  <path id="Path_2575" data-name="Path 2575" d="M56.018,22.1A7.793,7.793,0,0,1,49.7,19.108,6.719,6.719,0,0,1,48.2,14.74a7.4,7.4,0,0,1,1.954-5.632,6.9,6.9,0,0,1,4.828-2.3,7.839,7.839,0,0,1,5.287,1.149,6.936,6.936,0,0,1,3.218,5.057,8.548,8.548,0,0,1-.92,5.287,6.928,6.928,0,0,1-5.287,3.563C56.823,21.981,56.363,21.981,56.018,22.1ZM52.57,14.4A3.2,3.2,0,0,0,55.9,17.728a3.333,3.333,0,1,0,0-6.667A3.2,3.2,0,0,0,52.57,14.4Z" transform="translate(7.315 1.007)" fill="#fff"/>
  <path id="Path_2576" data-name="Path 2576" d="M107.384,28.969c.575-1.264,1.034-2.644,1.609-3.908.575-1.609,1.264-3.1,1.839-4.713.115-.115.115-.23,0-.46L105.315,7.13c0-.115-.115-.115-.115-.23h4.713c1.034,2.759,2.184,5.517,3.218,8.391.23-.575.345-1.034.575-1.494.92-2.184,1.724-4.483,2.644-6.667a.247.247,0,0,1,.23-.23h4.6c-.23.69-.575,1.264-.8,1.954-2.759,6.552-5.4,13.1-8.161,19.655-.115.345-.115.345-.575.345C110.257,28.969,108.763,28.969,107.384,28.969Z" transform="translate(15.834 1.031)" fill="#fff"/>
  <path id="Path_2577" data-name="Path 2577" d="M62.6,21.76V7.047h4.368V9.116c.23-.345.46-.575.69-.92A5.154,5.154,0,0,1,71.91,6.7a4.792,4.792,0,0,1,2.759,1.034,5.3,5.3,0,0,1,1.724,2.989,12.8,12.8,0,0,1,.23,1.954v8.966H72.255v-7.7a5.6,5.6,0,0,0-.115-1.379,2.226,2.226,0,0,0-2.3-1.724,3.182,3.182,0,0,0-1.494.345A2.048,2.048,0,0,0,67.2,13.024V21.53A31.583,31.583,0,0,1,62.6,21.76Z" transform="translate(9.469 0.999)" fill="#fff"/>
  <path id="Path_2578" data-name="Path 2578" d="M20.127,10.147a3.527,3.527,0,0,1-.575,1.494c-1.724,2.759-3.563,5.632-5.287,8.506a6.025,6.025,0,0,1-1.149,1.264,3.073,3.073,0,0,1-4.253-4.253c.8-1.264,1.609-2.529,2.414-3.908,1.034-1.724,2.069-3.333,3.218-5.057a3.121,3.121,0,0,1,4.6-.8A3.811,3.811,0,0,1,20.127,10.147Z" transform="translate(1.367 1.003)" fill="#fff"/>
  <path id="Path_2579" data-name="Path 2579" d="M19.8,20.577a3.068,3.068,0,0,1-3.1-2.989A3,3,0,0,1,19.8,14.6a3.068,3.068,0,0,1,3.1,2.989A3,3,0,0,1,19.8,20.577Z" transform="translate(2.61 2.182)" fill="#fff"/>
  <path id="Path_2580" data-name="Path 2580" d="M129.263,21.211a3.441,3.441,0,0,1-3.563-3.563,3.383,3.383,0,0,1,3.678-3.448,3.441,3.441,0,0,1,3.563,3.563A3.585,3.585,0,0,1,129.263,21.211Zm2.184-3.563a2.048,2.048,0,0,0-2.184-2.184,2.256,2.256,0,0,0-2.3,2.414,2.182,2.182,0,0,0,2.184,2.184A2.324,2.324,0,0,0,131.447,17.648Z" transform="translate(18.898 2.122)" fill="#fff"/>
  <path id="Path_2581" data-name="Path 2581" d="M126.007,15.258c-.345.23-.69.575-1.034.8a2.477,2.477,0,0,0-1.954-.575,2.4,2.4,0,0,0-1.494.8,2.435,2.435,0,0,0,.23,3.1,2.331,2.331,0,0,0,3.218-.115c.345.23.69.575,1.034.8a3.584,3.584,0,0,1-3.793.92,3.349,3.349,0,0,1-2.414-3.333,3.488,3.488,0,0,1,2.414-3.448A3.531,3.531,0,0,1,126.007,15.258Z" transform="translate(18.016 2.099)" fill="#fff"/>
  <path id="Path_2582" data-name="Path 2582" d="M117.22,20.239a.907.907,0,0,1-.92-.92.989.989,0,0,1,.92-.92.92.92,0,0,1,0,1.839Z" transform="translate(17.493 2.749)" fill="#fff"/>
</svg>
