<svg xmlns="http://www.w3.org/2000/svg" width="30" height="30" viewBox="0 0 30 30">
  <g id="Group_3741" data-name="Group 3741" transform="translate(-791 -3132)">
    <circle id="Ellipse_135" data-name="Ellipse 135" cx="15" cy="15" r="15" transform="translate(791 3132)" fill="#1e95ee"/>
    <g id="Group_3675" data-name="Group 3675" transform="translate(801.615 3142.615)">
      <path id="Path_4661" data-name="Path 4661" d="M3.817,7.653A3.822,3.822,0,0,1,0,3.835,3.864,3.864,0,0,1,1.119,1.119a3.815,3.815,0,1,1,5.4,5.4A3.732,3.732,0,0,1,3.817,7.653Zm0-6a2.136,2.136,0,0,0-1.542.642A2.184,2.184,0,0,0,3.817,6.019a2.136,2.136,0,0,0,1.542-.642,2.193,2.193,0,0,0,0-3.083A2.106,2.106,0,0,0,3.817,1.652Z" fill="#fff"/>
      <path id="Path_4662" data-name="Path 4662" d="M37.073,36.329a.884.884,0,0,1-.239.587.842.842,0,0,1-1.174,0l-1.56-1.56a4.381,4.381,0,0,0,.642-.514,4.15,4.15,0,0,0,.514-.642l1.56,1.56A.753.753,0,0,1,37.073,36.329Z" transform="translate(-27.842 -27.924)" fill="#fff"/>
      <path id="Path_4663" data-name="Path 4663" d="M6.533,1.119A3.864,3.864,0,0,0,3.817,0a3.789,3.789,0,0,0-2.7,1.119A3.832,3.832,0,0,0,0,3.835a3.817,3.817,0,0,0,7.634,0A3.74,3.74,0,0,0,6.533,1.119ZM5.359,5.359A2.18,2.18,0,0,1,3.817,6a2.136,2.136,0,0,1-1.542-.642A2.184,2.184,0,0,1,3.817,1.633a2.136,2.136,0,0,1,1.542.642A2.193,2.193,0,0,1,5.359,5.359Z" fill="#fff"/>
    </g>
  </g>
</svg>
