<svg xmlns="http://www.w3.org/2000/svg" xmlns:xlink="http://www.w3.org/1999/xlink" width="214.855" height="40" viewBox="0 0 214.855 40">
  <defs>
    <clipPath id="clip-path">
      <path id="Path_2559" data-name="Path 2559" d="M21.734,38.11A15.621,15.621,0,0,1,5.985,22.54c0-.268.268-.358.537-.358H37.036c.268,0,.537.089.537.358A15.755,15.755,0,0,1,21.734,38.11M21.645,1.6A20,20,0,1,0,41.511,21.645,20.012,20.012,0,0,0,21.645,1.6" transform="translate(-1.6 -1.6)" fill="#fff"/>
    </clipPath>
  </defs>
  <g id="Group_2451" data-name="Group 2451" transform="translate(-1.6 -1.6)">
    <g id="Group_2450" data-name="Group 2450" transform="translate(1.6 1.6)">
      <g id="Group_2449" data-name="Group 2449">
        <path id="Path_2558" data-name="Path 2558" d="M21.734,38.11A15.621,15.621,0,0,1,5.985,22.54c0-.268.268-.358.537-.358H37.036c.268,0,.537.089.537.358A15.755,15.755,0,0,1,21.734,38.11M21.645,1.6A20,20,0,1,0,41.511,21.645,20.012,20.012,0,0,0,21.645,1.6" transform="translate(-1.6 -1.6)" fill="#fff"/>
        <g id="Group_2448" data-name="Group 2448" clip-path="url(#clip-path)">
          <rect id="Rectangle_1" data-name="Rectangle 1" width="42.864" height="42.864" transform="translate(-1.432 -1.432)" fill="#fff"/>
        </g>
      </g>
    </g>
    <path id="Path_2560" data-name="Path 2560" d="M71.328,14.389A9.128,9.128,0,1,1,62.2,23.517a9.108,9.108,0,0,1,9.128-9.128Zm0,16.465a7.259,7.259,0,0,0,7.248-7.427,7.25,7.25,0,1,0-7.248,7.427Zm31.588-16.107h-1.969L94.057,29.87l-6.89-15.123H85.2l8.054,17.629h1.7l7.964-17.629Zm8.412,1.611h10.291v-1.7h-12.17v17.45h12.081v-1.7H111.238V24.233h9.306v-1.7h-9.306V16.358ZM135.4,25.844h-4.3V32.2h-1.79V14.747h6.532c3.937,0,6.622,2.148,6.622,5.548,0,2.864-1.879,4.832-4.832,5.369l5.638,6.532h-2.327L135.4,25.844Zm-4.385-1.7h4.653c2.864,0,4.922-1.432,4.922-3.848s-2.058-3.937-4.922-3.937h-4.653v7.785Zm18.7-9.4H155.8c4.027,0,6.711,2.327,6.711,5.817,0,3.579-2.774,5.906-6.89,5.906H151.6V32.2h-1.79V14.747ZM151.6,24.77H155.8c2.953,0,4.922-1.7,4.922-4.3,0-2.506-1.969-4.116-4.922-4.116H151.6V24.77ZM178.979,27.1h-9.128l-2.237,5.1h-1.969l7.964-17.629h1.7L183.274,32.2h-1.969l-2.327-5.1Zm-.716-1.7-3.848-8.68-3.848,8.68Zm17.271-11.1c-3.669,0-6.174,1.969-6.174,5.011,0,2.327,1.611,3.937,4.832,4.564l3.042.626c2.237.447,3.311,1.521,3.311,2.953,0,2.058-1.79,3.4-4.564,3.4-3.221,0-5.1-1.611-5.548-4.3h-1.79c.447,3.758,3.042,6,7.248,6,3.937,0,6.532-2.148,6.532-5.28,0-2.506-1.79-3.937-4.832-4.564l-2.685-.537c-2.327-.447-3.579-1.342-3.579-2.953,0-2.058,1.79-3.311,4.385-3.311,2.953,0,4.474,1.342,4.922,3.49h1.79c-.537-3.4-3.4-5.1-6.89-5.1Zm20.4,0c-3.669,0-6.174,1.969-6.174,5.011,0,2.327,1.611,3.937,4.832,4.564l3.042.626c2.237.447,3.311,1.521,3.311,2.953,0,2.058-1.79,3.4-4.564,3.4-3.221,0-5.1-1.611-5.548-4.3h-1.79c.447,3.758,3.042,6,7.248,6,3.937,0,6.532-2.148,6.532-5.28,0-2.506-1.79-3.937-4.832-4.564l-2.685-.537c-2.327-.447-3.579-1.342-3.579-2.953,0-2.058,1.79-3.311,4.385-3.311,2.953,0,4.474,1.342,4.922,3.49h1.79c-.537-3.4-3.311-5.1-6.89-5.1Z" transform="translate(-6.372 -1.335)" fill="#fff" fill-rule="evenodd"/>
  </g>
</svg>
