<svg xmlns="http://www.w3.org/2000/svg" width="30" height="30" viewBox="0 0 30 30">
  <g id="Group_3741" data-name="Group 3741" transform="translate(-791 -3132)">
    <circle id="Ellipse_135" data-name="Ellipse 135" cx="15" cy="15" r="15" transform="translate(791 3132)" fill="#1e95ee"/>
    <path id="Path_5963" data-name="Path 5963" d="M11.293,1.936A6.662,6.662,0,0,0,6.6,0a6.614,6.614,0,0,0,0,13.229,6.5,6.5,0,0,0,4.664-1.936A6.6,6.6,0,0,0,11.293,1.936ZM7.274,9.445c-.029,0-.059.029-.088.029v.44a.587.587,0,0,1-1.173,0v-.44a2.374,2.374,0,0,1-1.261-.851.59.59,0,1,1,.968-.675,1.183,1.183,0,0,0,1.232.381A.5.5,0,0,0,7.362,7.8c.029-.264-.029-.381-.88-.557A3,3,0,0,1,5.25,6.776a1.724,1.724,0,0,1-.293-2.317,1.673,1.673,0,0,1,1.056-.675V3.4a.587.587,0,0,1,1.173,0v.411a3.756,3.756,0,0,1,1,.469.594.594,0,0,1-.645,1C6.776,4.81,6.16,4.752,5.9,5.1a.547.547,0,0,0,.088.733,2.508,2.508,0,0,0,.763.264c.7.147,1.848.411,1.789,1.76A1.683,1.683,0,0,1,7.274,9.445Z" transform="translate(799.568 3140.4)" fill="#fff"/>
  </g>
</svg>
