<svg id="Group_2887" data-name="Group 2887" xmlns="http://www.w3.org/2000/svg" xmlns:xlink="http://www.w3.org/1999/xlink" width="548.335" height="318.111" viewBox="0 0 548.335 318.111">
  <defs>
    <clipPath id="clip-path">
      <path id="Path_3148" data-name="Path 3148" d="M29.621,36.4H25.8" transform="translate(-25.8 -36.4)" fill="#fff"/>
    </clipPath>
    <clipPath id="clip-path-85">
      <path id="Path_3318" data-name="Path 3318" d="M77.535,36.4H32" transform="translate(-32 -36.4)" fill="#fff"/>
    </clipPath>
    <clipPath id="clip-path-91">
      <path id="Path_3331" data-name="Path 3331" d="M68.28,42.5H35.8" transform="translate(-35.8 -42.5)" fill="#fff"/>
    </clipPath>
    <clipPath id="clip-path-101">
      <path id="Path_3352" data-name="Path 3352" d="M75.4,48.6H34" transform="translate(-34 -48.6)" fill="#fff"/>
    </clipPath>
    <clipPath id="clip-path-107">
      <path id="Path_3365" data-name="Path 3365" d="M77.772,39.5H31.6" transform="translate(-31.6 -39.5)" fill="#1e95ee"/>
    </clipPath>
    <clipPath id="clip-path-113">
      <path id="Path_3378" data-name="Path 3378" d="M72.822,45.6H32.7" transform="translate(-32.7 -45.6)" fill="#1e95ee"/>
    </clipPath>
  </defs>
  <g id="Group_2740" data-name="Group 2740" transform="translate(151.891 65.596)">
    <rect id="Rectangle_101" data-name="Rectangle 101" width="283.402" height="181.505" fill="#99d3ff"/>
  </g>
  <g id="Group_2741" data-name="Group 2741" transform="translate(104.297 52.859)">
    <path id="Path_3145" data-name="Path 3145" d="M376.8,27.427V213.752H244.656l-.955.592c-.955,1.911-2.229,2.866-3.5,2.866H205.49c-1.274,0-2.547-.955-3.5-2.866l-.318-.592H68.883V27.427a11.1,11.1,0,0,1,2.866-7.961c1.592-1.911,4.14-2.866,7.324-2.866H365.341a12.229,12.229,0,0,1,7.961,2.866A10.214,10.214,0,0,1,376.8,27.427ZM196.892,222.942a5.614,5.614,0,0,0,4.776,2.866H244.02q2.388,0,4.776-2.866l.955-1.911H413.105c1.274,11.782-5.413,17.832-20.379,18.469H53.28c-14.648-.318-21.653-6.687-20.379-18.469H196.574ZM360.246,35.706H85.442V203.836h274.8Z" transform="translate(-32.754 -16.6)" fill="#fff"/>
  </g>
  <g id="Group_2742" data-name="Group 2742" transform="translate(104.126 249.33)">
    <path id="Path_3146" data-name="Path 3146" d="M32.7,86.261,69,78.3H376.922l36.3,7.961Z" transform="translate(-32.7 -78.3)" fill="#e3e4e5"/>
  </g>
  <g id="Shape_7_" transform="translate(77.378 111.132)">
    <g id="Group_2827" data-name="Group 2827" transform="translate(4.776 4.776)">
      <g id="Group_2743" data-name="Group 2743" clip-path="url(#clip-path)">
        <path id="Path_3147" data-name="Path 3147" d="M25.8,36.4Z" transform="translate(-25.8 -36.4)" fill="#fff"/>
      </g>
      <g id="Group_2744" data-name="Group 2744" clip-path="url(#clip-path)">
        <path id="Path_3149" data-name="Path 3149" d="M25.9,36.4Z" transform="translate(-25.582 -36.4)" fill="#fff"/>
      </g>
      <g id="Group_2745" data-name="Group 2745" clip-path="url(#clip-path)">
        <path id="Path_3151" data-name="Path 3151" d="M25.9,36.4Z" transform="translate(-25.582 -36.4)" fill="#fff"/>
      </g>
      <g id="Group_2746" data-name="Group 2746" clip-path="url(#clip-path)">
        <path id="Path_3153" data-name="Path 3153" d="M25.9,36.4Z" transform="translate(-25.582 -36.4)" fill="#fff"/>
      </g>
      <g id="Group_2747" data-name="Group 2747" clip-path="url(#clip-path)">
        <path id="Path_3155" data-name="Path 3155" d="M25.9,36.4Z" transform="translate(-25.582 -36.4)" fill="#fff"/>
      </g>
      <g id="Group_2748" data-name="Group 2748" clip-path="url(#clip-path)">
        <path id="Path_3157" data-name="Path 3157" d="M25.9,36.4Z" transform="translate(-25.582 -36.4)" fill="#fff"/>
      </g>
      <g id="Group_2749" data-name="Group 2749" clip-path="url(#clip-path)">
        <path id="Path_3159" data-name="Path 3159" d="M25.9,36.4Z" transform="translate(-25.582 -36.4)" fill="#fff"/>
      </g>
      <g id="Group_2750" data-name="Group 2750" clip-path="url(#clip-path)">
        <path id="Path_3161" data-name="Path 3161" d="M25.9,36.4Z" transform="translate(-25.582 -36.4)" fill="#fff"/>
      </g>
      <g id="Group_2751" data-name="Group 2751" clip-path="url(#clip-path)">
        <path id="Path_3163" data-name="Path 3163" d="M26,36.4Z" transform="translate(-25.363 -36.4)" fill="#fff"/>
      </g>
      <g id="Group_2752" data-name="Group 2752" clip-path="url(#clip-path)">
        <path id="Path_3165" data-name="Path 3165" d="M26,36.4Z" transform="translate(-25.363 -36.4)" fill="#fff"/>
      </g>
      <g id="Group_2753" data-name="Group 2753" clip-path="url(#clip-path)">
        <path id="Path_3167" data-name="Path 3167" d="M26,36.4Z" transform="translate(-25.363 -36.4)" fill="#fff"/>
      </g>
      <g id="Group_2754" data-name="Group 2754" clip-path="url(#clip-path)">
        <path id="Path_3169" data-name="Path 3169" d="M26,36.4Z" transform="translate(-25.363 -36.4)" fill="#fff"/>
      </g>
      <g id="Group_2755" data-name="Group 2755" clip-path="url(#clip-path)">
        <path id="Path_3171" data-name="Path 3171" d="M26,36.4Z" transform="translate(-25.363 -36.4)" fill="#fff"/>
      </g>
      <g id="Group_2756" data-name="Group 2756" clip-path="url(#clip-path)">
        <path id="Path_3173" data-name="Path 3173" d="M26,36.4Z" transform="translate(-25.363 -36.4)" fill="#fff"/>
      </g>
      <g id="Group_2757" data-name="Group 2757" clip-path="url(#clip-path)">
        <path id="Path_3175" data-name="Path 3175" d="M26,36.4Z" transform="translate(-25.363 -36.4)" fill="#fff"/>
      </g>
      <g id="Group_2758" data-name="Group 2758" clip-path="url(#clip-path)">
        <path id="Path_3177" data-name="Path 3177" d="M26.1,36.4Z" transform="translate(-25.145 -36.4)" fill="#fff"/>
      </g>
      <g id="Group_2759" data-name="Group 2759" clip-path="url(#clip-path)">
        <path id="Path_3179" data-name="Path 3179" d="M26.1,36.4Z" transform="translate(-25.145 -36.4)" fill="#fff"/>
      </g>
      <g id="Group_2760" data-name="Group 2760" clip-path="url(#clip-path)">
        <path id="Path_3181" data-name="Path 3181" d="M26.1,36.4Z" transform="translate(-25.145 -36.4)" fill="#fff"/>
      </g>
      <g id="Group_2761" data-name="Group 2761" clip-path="url(#clip-path)">
        <path id="Path_3183" data-name="Path 3183" d="M26.1,36.4Z" transform="translate(-25.145 -36.4)" fill="#fff"/>
      </g>
      <g id="Group_2762" data-name="Group 2762" clip-path="url(#clip-path)">
        <path id="Path_3185" data-name="Path 3185" d="M26.1,36.4Z" transform="translate(-25.145 -36.4)" fill="#fff"/>
      </g>
      <g id="Group_2763" data-name="Group 2763" clip-path="url(#clip-path)">
        <path id="Path_3187" data-name="Path 3187" d="M26.1,36.4Z" transform="translate(-25.145 -36.4)" fill="#fff"/>
      </g>
      <g id="Group_2764" data-name="Group 2764" clip-path="url(#clip-path)">
        <path id="Path_3189" data-name="Path 3189" d="M26.1,36.4Z" transform="translate(-25.145 -36.4)" fill="#fff"/>
      </g>
      <g id="Group_2765" data-name="Group 2765" clip-path="url(#clip-path)">
        <path id="Path_3191" data-name="Path 3191" d="M26.2,36.4Z" transform="translate(-24.926 -36.4)" fill="#fff"/>
      </g>
      <g id="Group_2766" data-name="Group 2766" clip-path="url(#clip-path)">
        <path id="Path_3193" data-name="Path 3193" d="M26.2,36.4Z" transform="translate(-24.926 -36.4)" fill="#fff"/>
      </g>
      <g id="Group_2767" data-name="Group 2767" clip-path="url(#clip-path)">
        <path id="Path_3195" data-name="Path 3195" d="M26.2,36.4Z" transform="translate(-24.926 -36.4)" fill="#fff"/>
      </g>
      <g id="Group_2768" data-name="Group 2768" clip-path="url(#clip-path)">
        <path id="Path_3197" data-name="Path 3197" d="M26.2,36.4Z" transform="translate(-24.926 -36.4)" fill="#fff"/>
      </g>
      <g id="Group_2769" data-name="Group 2769" clip-path="url(#clip-path)">
        <path id="Path_3199" data-name="Path 3199" d="M26.2,36.4Z" transform="translate(-24.926 -36.4)" fill="#fff"/>
      </g>
      <g id="Group_2770" data-name="Group 2770" clip-path="url(#clip-path)">
        <path id="Path_3201" data-name="Path 3201" d="M26.2,36.4Z" transform="translate(-24.926 -36.4)" fill="#fff"/>
      </g>
      <g id="Group_2771" data-name="Group 2771" clip-path="url(#clip-path)">
        <path id="Path_3203" data-name="Path 3203" d="M26.2,36.4Z" transform="translate(-24.926 -36.4)" fill="#fff"/>
      </g>
      <g id="Group_2772" data-name="Group 2772" clip-path="url(#clip-path)">
        <path id="Path_3205" data-name="Path 3205" d="M26.3,36.4Z" transform="translate(-24.708 -36.4)" fill="#fff"/>
      </g>
      <g id="Group_2773" data-name="Group 2773" clip-path="url(#clip-path)">
        <path id="Path_3207" data-name="Path 3207" d="M26.3,36.4Z" transform="translate(-24.708 -36.4)" fill="#fff"/>
      </g>
      <g id="Group_2774" data-name="Group 2774" clip-path="url(#clip-path)">
        <path id="Path_3209" data-name="Path 3209" d="M26.3,36.4Z" transform="translate(-24.708 -36.4)" fill="#fff"/>
      </g>
      <g id="Group_2775" data-name="Group 2775" clip-path="url(#clip-path)">
        <path id="Path_3211" data-name="Path 3211" d="M26.3,36.4Z" transform="translate(-24.708 -36.4)" fill="#fff"/>
      </g>
      <g id="Group_2776" data-name="Group 2776" clip-path="url(#clip-path)">
        <path id="Path_3213" data-name="Path 3213" d="M26.3,36.4Z" transform="translate(-24.708 -36.4)" fill="#fff"/>
      </g>
      <g id="Group_2777" data-name="Group 2777" clip-path="url(#clip-path)">
        <path id="Path_3215" data-name="Path 3215" d="M26.3,36.4Z" transform="translate(-24.708 -36.4)" fill="#fff"/>
      </g>
      <g id="Group_2778" data-name="Group 2778" clip-path="url(#clip-path)">
        <path id="Path_3217" data-name="Path 3217" d="M26.3,36.4Z" transform="translate(-24.708 -36.4)" fill="#fff"/>
      </g>
      <g id="Group_2779" data-name="Group 2779" clip-path="url(#clip-path)">
        <path id="Path_3219" data-name="Path 3219" d="M26.4,36.4Z" transform="translate(-24.489 -36.4)" fill="#fff"/>
      </g>
      <g id="Group_2780" data-name="Group 2780" clip-path="url(#clip-path)">
        <path id="Path_3221" data-name="Path 3221" d="M26.4,36.4Z" transform="translate(-24.489 -36.4)" fill="#fff"/>
      </g>
      <g id="Group_2781" data-name="Group 2781" clip-path="url(#clip-path)">
        <path id="Path_3223" data-name="Path 3223" d="M26.4,36.4Z" transform="translate(-24.489 -36.4)" fill="#fff"/>
      </g>
      <g id="Group_2782" data-name="Group 2782" clip-path="url(#clip-path)">
        <path id="Path_3225" data-name="Path 3225" d="M26.4,36.4Z" transform="translate(-24.489 -36.4)" fill="#fff"/>
      </g>
      <g id="Group_2783" data-name="Group 2783" clip-path="url(#clip-path)">
        <path id="Path_3227" data-name="Path 3227" d="M26.4,36.4Z" transform="translate(-24.489 -36.4)" fill="#fff"/>
      </g>
      <g id="Group_2784" data-name="Group 2784" clip-path="url(#clip-path)">
        <path id="Path_3229" data-name="Path 3229" d="M26.4,36.4Z" transform="translate(-24.489 -36.4)" fill="#fff"/>
      </g>
      <g id="Group_2785" data-name="Group 2785" clip-path="url(#clip-path)">
        <path id="Path_3231" data-name="Path 3231" d="M26.4,36.4Z" transform="translate(-24.489 -36.4)" fill="#fff"/>
      </g>
      <g id="Group_2786" data-name="Group 2786" clip-path="url(#clip-path)">
        <path id="Path_3233" data-name="Path 3233" d="M26.4,36.4Z" transform="translate(-24.489 -36.4)" fill="#fff"/>
      </g>
      <g id="Group_2787" data-name="Group 2787" clip-path="url(#clip-path)">
        <path id="Path_3235" data-name="Path 3235" d="M26.5,36.4Z" transform="translate(-24.271 -36.4)" fill="#fff"/>
      </g>
      <g id="Group_2788" data-name="Group 2788" clip-path="url(#clip-path)">
        <path id="Path_3237" data-name="Path 3237" d="M26.5,36.4Z" transform="translate(-24.271 -36.4)" fill="#fff"/>
      </g>
      <g id="Group_2789" data-name="Group 2789" clip-path="url(#clip-path)">
        <path id="Path_3239" data-name="Path 3239" d="M26.5,36.4Z" transform="translate(-24.271 -36.4)" fill="#fff"/>
      </g>
      <g id="Group_2790" data-name="Group 2790" clip-path="url(#clip-path)">
        <path id="Path_3241" data-name="Path 3241" d="M26.5,36.4Z" transform="translate(-24.271 -36.4)" fill="#fff"/>
      </g>
      <g id="Group_2791" data-name="Group 2791" clip-path="url(#clip-path)">
        <path id="Path_3243" data-name="Path 3243" d="M26.5,36.4Z" transform="translate(-24.271 -36.4)" fill="#fff"/>
      </g>
      <g id="Group_2792" data-name="Group 2792" clip-path="url(#clip-path)">
        <path id="Path_3245" data-name="Path 3245" d="M26.5,36.4Z" transform="translate(-24.271 -36.4)" fill="#fff"/>
      </g>
      <g id="Group_2793" data-name="Group 2793" clip-path="url(#clip-path)">
        <path id="Path_3247" data-name="Path 3247" d="M26.5,36.4Z" transform="translate(-24.271 -36.4)" fill="#fff"/>
      </g>
      <g id="Group_2794" data-name="Group 2794" clip-path="url(#clip-path)">
        <path id="Path_3249" data-name="Path 3249" d="M26.6,36.4Z" transform="translate(-24.053 -36.4)" fill="#fff"/>
      </g>
      <g id="Group_2795" data-name="Group 2795" clip-path="url(#clip-path)">
        <path id="Path_3251" data-name="Path 3251" d="M26.6,36.4Z" transform="translate(-24.053 -36.4)" fill="#fff"/>
      </g>
      <g id="Group_2796" data-name="Group 2796" clip-path="url(#clip-path)">
        <path id="Path_3253" data-name="Path 3253" d="M26.6,36.4Z" transform="translate(-24.053 -36.4)" fill="#fff"/>
      </g>
      <g id="Group_2797" data-name="Group 2797" clip-path="url(#clip-path)">
        <path id="Path_3255" data-name="Path 3255" d="M26.6,36.4Z" transform="translate(-24.053 -36.4)" fill="#fff"/>
      </g>
      <g id="Group_2798" data-name="Group 2798" clip-path="url(#clip-path)">
        <path id="Path_3257" data-name="Path 3257" d="M26.6,36.4Z" transform="translate(-24.053 -36.4)" fill="#fff"/>
      </g>
      <g id="Group_2799" data-name="Group 2799" clip-path="url(#clip-path)">
        <path id="Path_3259" data-name="Path 3259" d="M26.6,36.4Z" transform="translate(-24.053 -36.4)" fill="#fff"/>
      </g>
      <g id="Group_2800" data-name="Group 2800" clip-path="url(#clip-path)">
        <path id="Path_3261" data-name="Path 3261" d="M26.6,36.4Z" transform="translate(-24.053 -36.4)" fill="#fff"/>
      </g>
      <g id="Group_2801" data-name="Group 2801" clip-path="url(#clip-path)">
        <path id="Path_3263" data-name="Path 3263" d="M26.7,36.4Z" transform="translate(-23.834 -36.4)" fill="#fff"/>
      </g>
      <g id="Group_2802" data-name="Group 2802" clip-path="url(#clip-path)">
        <path id="Path_3265" data-name="Path 3265" d="M26.7,36.4Z" transform="translate(-23.834 -36.4)" fill="#fff"/>
      </g>
      <g id="Group_2803" data-name="Group 2803" clip-path="url(#clip-path)">
        <path id="Path_3267" data-name="Path 3267" d="M26.7,36.4Z" transform="translate(-23.834 -36.4)" fill="#fff"/>
      </g>
      <g id="Group_2804" data-name="Group 2804" clip-path="url(#clip-path)">
        <path id="Path_3269" data-name="Path 3269" d="M26.7,36.4Z" transform="translate(-23.834 -36.4)" fill="#fff"/>
      </g>
      <g id="Group_2805" data-name="Group 2805" clip-path="url(#clip-path)">
        <path id="Path_3271" data-name="Path 3271" d="M26.7,36.4Z" transform="translate(-23.834 -36.4)" fill="#fff"/>
      </g>
      <g id="Group_2806" data-name="Group 2806" clip-path="url(#clip-path)">
        <path id="Path_3273" data-name="Path 3273" d="M26.7,36.4Z" transform="translate(-23.834 -36.4)" fill="#fff"/>
      </g>
      <g id="Group_2807" data-name="Group 2807" clip-path="url(#clip-path)">
        <path id="Path_3275" data-name="Path 3275" d="M26.7,36.4Z" transform="translate(-23.834 -36.4)" fill="#fff"/>
      </g>
      <g id="Group_2808" data-name="Group 2808" clip-path="url(#clip-path)">
        <path id="Path_3277" data-name="Path 3277" d="M26.8,36.4Z" transform="translate(-23.616 -36.4)" fill="#fff"/>
      </g>
      <g id="Group_2809" data-name="Group 2809" clip-path="url(#clip-path)">
        <path id="Path_3279" data-name="Path 3279" d="M26.8,36.4Z" transform="translate(-23.616 -36.4)" fill="#fff"/>
      </g>
      <g id="Group_2810" data-name="Group 2810" clip-path="url(#clip-path)">
        <path id="Path_3281" data-name="Path 3281" d="M26.8,36.4Z" transform="translate(-23.616 -36.4)" fill="#fff"/>
      </g>
      <g id="Group_2811" data-name="Group 2811" clip-path="url(#clip-path)">
        <path id="Path_3283" data-name="Path 3283" d="M26.8,36.4Z" transform="translate(-23.616 -36.4)" fill="#fff"/>
      </g>
      <g id="Group_2812" data-name="Group 2812" clip-path="url(#clip-path)">
        <path id="Path_3285" data-name="Path 3285" d="M26.8,36.4Z" transform="translate(-23.616 -36.4)" fill="#fff"/>
      </g>
      <g id="Group_2813" data-name="Group 2813" clip-path="url(#clip-path)">
        <path id="Path_3287" data-name="Path 3287" d="M26.8,36.4Z" transform="translate(-23.616 -36.4)" fill="#fff"/>
      </g>
      <g id="Group_2814" data-name="Group 2814" clip-path="url(#clip-path)">
        <path id="Path_3289" data-name="Path 3289" d="M26.8,36.4Z" transform="translate(-23.616 -36.4)" fill="#fff"/>
      </g>
      <g id="Group_2815" data-name="Group 2815" clip-path="url(#clip-path)">
        <path id="Path_3291" data-name="Path 3291" d="M26.9,36.4Z" transform="translate(-23.397 -36.4)" fill="#fff"/>
      </g>
      <g id="Group_2816" data-name="Group 2816" clip-path="url(#clip-path)">
        <path id="Path_3293" data-name="Path 3293" d="M26.9,36.4Z" transform="translate(-23.397 -36.4)" fill="#fff"/>
      </g>
      <g id="Group_2817" data-name="Group 2817" clip-path="url(#clip-path)">
        <path id="Path_3295" data-name="Path 3295" d="M26.9,36.4Z" transform="translate(-23.397 -36.4)" fill="#fff"/>
      </g>
      <g id="Group_2818" data-name="Group 2818" clip-path="url(#clip-path)">
        <path id="Path_3297" data-name="Path 3297" d="M26.9,36.4Z" transform="translate(-23.397 -36.4)" fill="#fff"/>
      </g>
      <g id="Group_2819" data-name="Group 2819" clip-path="url(#clip-path)">
        <path id="Path_3299" data-name="Path 3299" d="M26.9,36.4Z" transform="translate(-23.397 -36.4)" fill="#fff"/>
      </g>
      <g id="Group_2820" data-name="Group 2820" clip-path="url(#clip-path)">
        <path id="Path_3301" data-name="Path 3301" d="M26.9,36.4Z" transform="translate(-23.397 -36.4)" fill="#fff"/>
      </g>
      <g id="Group_2821" data-name="Group 2821" clip-path="url(#clip-path)">
        <path id="Path_3303" data-name="Path 3303" d="M26.9,36.4Z" transform="translate(-23.397 -36.4)" fill="#fff"/>
      </g>
      <g id="Group_2822" data-name="Group 2822" clip-path="url(#clip-path)">
        <path id="Path_3305" data-name="Path 3305" d="M27,36.4Z" transform="translate(-23.179 -36.4)" fill="#fff"/>
      </g>
      <g id="Group_2823" data-name="Group 2823" clip-path="url(#clip-path)">
        <path id="Path_3307" data-name="Path 3307" d="M27,36.4Z" transform="translate(-23.179 -36.4)" fill="#fff"/>
      </g>
      <g id="Group_2824" data-name="Group 2824" clip-path="url(#clip-path)">
        <path id="Path_3309" data-name="Path 3309" d="M27,36.4Z" transform="translate(-23.179 -36.4)" fill="#fff"/>
      </g>
      <g id="Group_2825" data-name="Group 2825" clip-path="url(#clip-path)">
        <path id="Path_3311" data-name="Path 3311" d="M27,36.4Z" transform="translate(-23.179 -36.4)" fill="#fff"/>
      </g>
      <g id="Group_2826" data-name="Group 2826" clip-path="url(#clip-path)">
        <path id="Path_3313" data-name="Path 3313" d="M27,36.4Z" transform="translate(-23.179 -36.4)" fill="#fff"/>
      </g>
    </g>
    <path id="Path_3315" data-name="Path 3315" d="M32.9,44.453H29.076A4.689,4.689,0,0,1,24.3,39.676,4.9,4.9,0,0,1,29.076,34.9H32.9a4.776,4.776,0,0,1,0,9.553Z" transform="translate(-24.3 -34.9)" fill="#fff"/>
  </g>
  <g id="Shape_6_" transform="translate(289.452 57.234)">
    <path id="Path_3316" data-name="Path 3316" d="M95.995,27.61a4.039,4.039,0,0,1-1.911-.318,6.961,6.961,0,0,1-1.592-.955,5.113,5.113,0,0,1-1.592-3.5,5.113,5.113,0,0,1,1.592-3.5l.637-.637a1.17,1.17,0,0,1,.955-.318c.318,0,.637-.318.955-.318A5.706,5.706,0,0,1,99.5,19.331a5.113,5.113,0,0,1,1.592,3.5,5.113,5.113,0,0,1-1.592,3.5A6.677,6.677,0,0,1,95.995,27.61Z" transform="translate(-90.9 -17.974)" fill="#fff"/>
  </g>
  <g id="Shape_5_" transform="translate(97.121 111.132)">
    <g id="Group_2835" data-name="Group 2835" transform="translate(4.776 4.776)">
      <g id="Group_2829" data-name="Group 2829" clip-path="url(#clip-path-85)">
        <path id="Path_3317" data-name="Path 3317" d="M33.1,36.4Z" transform="translate(-29.597 -36.4)" fill="#fff"/>
      </g>
      <g id="Group_2830" data-name="Group 2830" clip-path="url(#clip-path-85)">
        <path id="Path_3319" data-name="Path 3319" d="M36.3,36.4Z" transform="translate(-22.608 -36.4)" fill="#fff"/>
      </g>
      <g id="Group_2831" data-name="Group 2831" clip-path="url(#clip-path-85)">
        <path id="Path_3321" data-name="Path 3321" d="M39.4,36.4Z" transform="translate(-15.836 -36.4)" fill="#fff"/>
      </g>
      <g id="Group_2832" data-name="Group 2832" clip-path="url(#clip-path-85)">
        <path id="Path_3323" data-name="Path 3323" d="M42.5,36.4Z" transform="translate(-9.065 -36.4)" fill="#fff"/>
      </g>
      <g id="Group_2833" data-name="Group 2833" clip-path="url(#clip-path-85)">
        <path id="Path_3325" data-name="Path 3325" d="M45.7,36.4Z" transform="translate(-2.075 -36.4)" fill="#fff"/>
      </g>
      <g id="Group_2834" data-name="Group 2834" clip-path="url(#clip-path-85)">
        <path id="Path_3327" data-name="Path 3327" d="M45.7,36.4Z" transform="translate(-2.075 -36.4)" fill="#fff"/>
      </g>
    </g>
    <path id="Path_3329" data-name="Path 3329" d="M80.812,44.453H35.276A4.689,4.689,0,0,1,30.5,39.676,4.9,4.9,0,0,1,35.276,34.9H80.812a4.776,4.776,0,0,1,0,9.553Z" transform="translate(-30.5 -34.9)" fill="#fff"/>
  </g>
  <g id="Shape_4_" transform="translate(109.221 130.556)">
    <g id="Group_2846" data-name="Group 2846" transform="translate(4.776 4.776)">
      <g id="Group_2836" data-name="Group 2836" clip-path="url(#clip-path-91)">
        <path id="Path_3330" data-name="Path 3330" d="M36.1,42.5Z" transform="translate(-35.145 -42.5)" fill="#fff"/>
      </g>
      <g id="Group_2837" data-name="Group 2837" clip-path="url(#clip-path-91)">
        <path id="Path_3332" data-name="Path 3332" d="M37.3,42.5Z" transform="translate(-32.524 -42.5)" fill="#fff"/>
      </g>
      <g id="Group_2838" data-name="Group 2838" clip-path="url(#clip-path-91)">
        <path id="Path_3334" data-name="Path 3334" d="M38.5,42.5Z" transform="translate(-29.902 -42.5)" fill="#fff"/>
      </g>
      <g id="Group_2839" data-name="Group 2839" clip-path="url(#clip-path-91)">
        <path id="Path_3336" data-name="Path 3336" d="M39.7,42.5Z" transform="translate(-27.281 -42.5)" fill="#fff"/>
      </g>
      <g id="Group_2840" data-name="Group 2840" clip-path="url(#clip-path-91)">
        <path id="Path_3338" data-name="Path 3338" d="M40.9,42.5Z" transform="translate(-24.66 -42.5)" fill="#fff"/>
      </g>
      <g id="Group_2841" data-name="Group 2841" clip-path="url(#clip-path-91)">
        <path id="Path_3340" data-name="Path 3340" d="M42.1,42.5Z" transform="translate(-22.039 -42.5)" fill="#fff"/>
      </g>
      <g id="Group_2842" data-name="Group 2842" clip-path="url(#clip-path-91)">
        <path id="Path_3342" data-name="Path 3342" d="M43.3,42.5Z" transform="translate(-19.418 -42.5)" fill="#fff"/>
      </g>
      <g id="Group_2843" data-name="Group 2843" clip-path="url(#clip-path-91)">
        <path id="Path_3344" data-name="Path 3344" d="M44.5,42.5Z" transform="translate(-16.797 -42.5)" fill="#fff"/>
      </g>
      <g id="Group_2844" data-name="Group 2844" clip-path="url(#clip-path-91)">
        <path id="Path_3346" data-name="Path 3346" d="M45.7,42.5Z" transform="translate(-14.176 -42.5)" fill="#fff"/>
      </g>
      <g id="Group_2845" data-name="Group 2845" clip-path="url(#clip-path-91)">
        <path id="Path_3348" data-name="Path 3348" d="M45.7,42.5Z" transform="translate(-14.176 -42.5)" fill="#fff"/>
      </g>
    </g>
    <path id="Path_3350" data-name="Path 3350" d="M71.556,50.553H39.076A4.689,4.689,0,0,1,34.3,45.776,4.9,4.9,0,0,1,39.076,41h32.48a4.776,4.776,0,1,1,0,9.553Z" transform="translate(-34.3 -41)" fill="#fff"/>
  </g>
  <g id="Shape_3_" transform="translate(103.489 149.662)">
    <g id="Group_2853" data-name="Group 2853" transform="translate(4.776 5.095)">
      <g id="Group_2847" data-name="Group 2847" clip-path="url(#clip-path-101)">
        <path id="Path_3351" data-name="Path 3351" d="M35.3,48.6Z" transform="translate(-31.16 -48.6)" fill="#fff"/>
      </g>
      <g id="Group_2848" data-name="Group 2848" clip-path="url(#clip-path-101)">
        <path id="Path_3353" data-name="Path 3353" d="M37.7,48.6Z" transform="translate(-25.918 -48.6)" fill="#fff"/>
      </g>
      <g id="Group_2849" data-name="Group 2849" clip-path="url(#clip-path-101)">
        <path id="Path_3355" data-name="Path 3355" d="M40.1,48.6Z" transform="translate(-20.676 -48.6)" fill="#fff"/>
      </g>
      <g id="Group_2850" data-name="Group 2850" clip-path="url(#clip-path-101)">
        <path id="Path_3357" data-name="Path 3357" d="M42.5,48.6Z" transform="translate(-15.434 -48.6)" fill="#fff"/>
      </g>
      <g id="Group_2851" data-name="Group 2851" clip-path="url(#clip-path-101)">
        <path id="Path_3359" data-name="Path 3359" d="M44.9,48.6Z" transform="translate(-10.191 -48.6)" fill="#fff"/>
      </g>
      <g id="Group_2852" data-name="Group 2852" clip-path="url(#clip-path-101)">
        <path id="Path_3361" data-name="Path 3361" d="M44.9,48.6Z" transform="translate(-10.191 -48.6)" fill="#fff"/>
      </g>
    </g>
    <path id="Path_3363" data-name="Path 3363" d="M78.672,56.871h-41.4A4.689,4.689,0,0,1,32.5,52.095C32.5,49.547,34.729,47,37.276,47h41.4a4.689,4.689,0,0,1,4.776,4.776A4.96,4.96,0,0,1,78.672,56.871Z" transform="translate(-32.5 -47)" fill="#fff"/>
  </g>
  <g id="Shape_2_" transform="translate(95.847 121.003)">
    <g id="Group_2860" data-name="Group 2860" transform="translate(4.776 4.776)">
      <g id="Group_2854" data-name="Group 2854" clip-path="url(#clip-path-107)">
        <path id="Path_3364" data-name="Path 3364" d="M32.2,39.5Z" transform="translate(-30.289 -39.5)" fill="#1e95ee"/>
      </g>
      <g id="Group_2855" data-name="Group 2855" clip-path="url(#clip-path-107)">
        <path id="Path_3366" data-name="Path 3366" d="M35.5,39.5Z" transform="translate(-23.081 -39.5)" fill="#1e95ee"/>
      </g>
      <g id="Group_2856" data-name="Group 2856" clip-path="url(#clip-path-107)">
        <path id="Path_3368" data-name="Path 3368" d="M38.8,39.5Z" transform="translate(-15.873 -39.5)" fill="#1e95ee"/>
      </g>
      <g id="Group_2857" data-name="Group 2857" clip-path="url(#clip-path-107)">
        <path id="Path_3370" data-name="Path 3370" d="M42.1,39.5Z" transform="translate(-8.665 -39.5)" fill="#1e95ee"/>
      </g>
      <g id="Group_2858" data-name="Group 2858" clip-path="url(#clip-path-107)">
        <path id="Path_3372" data-name="Path 3372" d="M45.4,39.5Z" transform="translate(-1.457 -39.5)" fill="#1e95ee"/>
      </g>
      <g id="Group_2859" data-name="Group 2859" clip-path="url(#clip-path-107)">
        <path id="Path_3374" data-name="Path 3374" d="M45.4,39.5Z" transform="translate(-1.457 -39.5)" fill="#1e95ee"/>
      </g>
    </g>
    <path id="Path_3376" data-name="Path 3376" d="M81.049,47.553H34.876A4.689,4.689,0,0,1,30.1,42.776,4.9,4.9,0,0,1,34.876,38H81.049a4.776,4.776,0,0,1,0,9.553Z" transform="translate(-30.1 -38)" fill="#1e95ee"/>
  </g>
  <g id="Shape_1_" transform="translate(99.35 140.427)">
    <g id="Group_2868" data-name="Group 2868" transform="translate(4.776 4.776)">
      <g id="Group_2861" data-name="Group 2861" clip-path="url(#clip-path-113)">
        <path id="Path_3377" data-name="Path 3377" d="M33.3,45.6Z" transform="translate(-31.389 -45.6)" fill="#1e95ee"/>
      </g>
      <g id="Group_2862" data-name="Group 2862" clip-path="url(#clip-path-113)">
        <path id="Path_3379" data-name="Path 3379" d="M35.5,45.6Z" transform="translate(-26.584 -45.6)" fill="#1e95ee"/>
      </g>
      <g id="Group_2863" data-name="Group 2863" clip-path="url(#clip-path-113)">
        <path id="Path_3381" data-name="Path 3381" d="M37.6,45.6Z" transform="translate(-21.997 -45.6)" fill="#1e95ee"/>
      </g>
      <g id="Group_2864" data-name="Group 2864" clip-path="url(#clip-path-113)">
        <path id="Path_3383" data-name="Path 3383" d="M39.8,45.6Z" transform="translate(-17.192 -45.6)" fill="#1e95ee"/>
      </g>
      <g id="Group_2865" data-name="Group 2865" clip-path="url(#clip-path-113)">
        <path id="Path_3385" data-name="Path 3385" d="M42,45.6Z" transform="translate(-12.386 -45.6)" fill="#1e95ee"/>
      </g>
      <g id="Group_2866" data-name="Group 2866" clip-path="url(#clip-path-113)">
        <path id="Path_3387" data-name="Path 3387" d="M44.2,45.6Z" transform="translate(-7.581 -45.6)" fill="#1e95ee"/>
      </g>
      <g id="Group_2867" data-name="Group 2867" clip-path="url(#clip-path-113)">
        <path id="Path_3389" data-name="Path 3389" d="M44.2,45.6Z" transform="translate(-7.581 -45.6)" fill="#1e95ee"/>
      </g>
    </g>
    <path id="Path_3391" data-name="Path 3391" d="M76.1,53.653H35.976A4.689,4.689,0,0,1,31.2,48.876,4.9,4.9,0,0,1,35.976,44.1H76.1a4.776,4.776,0,1,1,0,9.553Z" transform="translate(-31.2 -44.1)" fill="#1e95ee"/>
  </g>
  <g id="Group_2869" data-name="Group 2869" transform="translate(485.923 159.215)" opacity="0.5">
    <path id="Path_3392" data-name="Path 3392" d="M164.7,74.2a12.1,12.1,0,1,1,12.1-12.1A12.095,12.095,0,0,1,164.7,74.2Zm0-19.743a7.642,7.642,0,1,0,7.642,7.642C172.024,57.961,168.84,54.458,164.7,54.458Z" transform="translate(-152.6 -50)" fill="#fff"/>
  </g>
  <g id="Group_2870" data-name="Group 2870" transform="translate(402.413)" opacity="0.5">
    <path id="Path_3393" data-name="Path 3393" d="M133.143,13.692a7.515,7.515,0,0,1-5.095-2.229,5.874,5.874,0,0,1-1.592-5.095,6.772,6.772,0,0,1,2.229-4.776C129.958.318,131.869,0,133.78,0a6.772,6.772,0,0,1,4.776,2.229,5.874,5.874,0,0,1,1.592,5.095,6.772,6.772,0,0,1-2.229,4.776A9.475,9.475,0,0,1,133.143,13.692Zm0-11.145a5.136,5.136,0,0,0-2.866.955,4.287,4.287,0,0,0-1.592,2.866,6.144,6.144,0,0,0,.955,3.184h0a4.426,4.426,0,0,0,6.05.318,4.287,4.287,0,0,0,1.592-2.866,6.144,6.144,0,0,0-.955-3.184,4.287,4.287,0,0,0-2.866-1.592C133.461,2.547,133.461,2.547,133.143,2.547Z" transform="translate(-126.375 0)" fill="#fff"/>
  </g>
  <g id="Group_2871" data-name="Group 2871" transform="translate(124.052 301.234)" opacity="0.5">
    <path id="Path_3394" data-name="Path 3394" d="M45.78,107.974a7.514,7.514,0,0,1-5.095-2.229h0a6.651,6.651,0,0,1,.637-9.553C42.6,94.918,44.506,94.6,46.417,94.6a6.772,6.772,0,0,1,4.776,2.229,5.874,5.874,0,0,1,1.592,5.095,6.772,6.772,0,0,1-2.229,4.776A13.344,13.344,0,0,1,45.78,107.974Zm-3.184-4.14a4.426,4.426,0,0,0,6.05.318,4.287,4.287,0,0,0,1.592-2.866,5.379,5.379,0,0,0-.955-3.184,4.287,4.287,0,0,0-2.866-1.592,6.144,6.144,0,0,0-3.184.955,4.287,4.287,0,0,0-1.592,2.866,5.72,5.72,0,0,0,.955,3.5Z" transform="translate(-38.958 -94.6)" fill="#fff"/>
  </g>
  <g id="Group_2872" data-name="Group 2872" transform="translate(496.749 301.871)" opacity="0.5">
    <path id="Path_3395" data-name="Path 3395" d="M162.687,108.174a6.687,6.687,0,1,1,6.687-6.687A6.726,6.726,0,0,1,162.687,108.174Zm0-8.916a1.911,1.911,0,1,0,1.911,1.911A2.055,2.055,0,0,0,162.687,99.258Z" transform="translate(-156 -94.8)" fill="#fff"/>
  </g>
  <g id="Group_2873" data-name="Group 2873" transform="translate(340.082 18.469)" opacity="0.5">
    <path id="Path_3396" data-name="Path 3396" d="M113.805,19.811a7.005,7.005,0,1,1,7.005-7.005A7.068,7.068,0,0,1,113.805,19.811Zm0-9.234a2.229,2.229,0,1,0,2.229,2.229A2.177,2.177,0,0,0,113.805,10.576Z" transform="translate(-106.8 -5.8)" fill="#fff"/>
  </g>
  <g id="Group_2876" data-name="Group 2876" transform="translate(93.3 41.077)" opacity="0.5">
    <g id="Group_2874" data-name="Group 2874" transform="translate(7.961)" opacity="0.4">
      <path id="Path_3397" data-name="Path 3397" d="M34.029,33.279A2.177,2.177,0,0,1,31.8,31.05V15.129a2.229,2.229,0,0,1,4.458,0V31.05C36.576,32.006,35.3,33.279,34.029,33.279Z" transform="translate(-31.8 -12.9)" fill="#fff"/>
    </g>
    <g id="Group_2875" data-name="Group 2875" transform="translate(0 7.961)" opacity="0.4">
      <path id="Path_3398" data-name="Path 3398" d="M47.45,19.858H31.529a2.229,2.229,0,1,1,0-4.458H47.45a2.177,2.177,0,0,1,2.229,2.229C50,18.584,48.724,19.858,47.45,19.858Z" transform="translate(-29.3 -15.4)" fill="#fff"/>
    </g>
  </g>
  <g id="Group_2879" data-name="Group 2879" transform="translate(53.815 297.731)" opacity="0.5">
    <g id="Group_2877" data-name="Group 2877" transform="translate(7.961)" opacity="0.4">
      <path id="Path_3399" data-name="Path 3399" d="M21.629,113.879A2.177,2.177,0,0,1,19.4,111.65V95.729a2.229,2.229,0,0,1,4.458,0V111.65A2.177,2.177,0,0,1,21.629,113.879Z" transform="translate(-19.4 -93.5)" fill="#fff"/>
    </g>
    <g id="Group_2878" data-name="Group 2878" transform="translate(0 7.961)" opacity="0.4">
      <path id="Path_3400" data-name="Path 3400" d="M35.05,100.458H19.129a2.229,2.229,0,1,1,0-4.458H35.05a2.229,2.229,0,1,1,0,4.458Z" transform="translate(-16.9 -96)" fill="#fff"/>
    </g>
  </g>
  <g id="Group_2880" data-name="Group 2880" transform="translate(44.58 147.433)" opacity="0.5">
    <path id="Path_3401" data-name="Path 3401" d="M28.011,50.758H16.229a2.229,2.229,0,0,1,0-4.458H28.011a2.229,2.229,0,0,1,0,4.458Z" transform="translate(-14 -46.3)" fill="#fff"/>
  </g>
  <g id="Group_2881" data-name="Group 2881" transform="translate(532.095 193.605)" opacity="0.5">
    <path id="Path_3402" data-name="Path 3402" d="M181.111,65.258H169.329a2.229,2.229,0,0,1,0-4.458h11.782a2.177,2.177,0,0,1,2.229,2.229A2.012,2.012,0,0,1,181.111,65.258Z" transform="translate(-167.1 -60.8)" fill="#fff"/>
  </g>
  <g id="Group_2882" data-name="Group 2882" transform="translate(61.457 213.347)" opacity="0.5">
    <path id="Path_3403" data-name="Path 3403" d="M34.266,71.776H21.529A2.177,2.177,0,0,1,19.3,69.547,2.461,2.461,0,0,1,21.529,67H34.266A2.177,2.177,0,0,1,36.5,69.229,2.461,2.461,0,0,1,34.266,71.776Z" transform="translate(-19.3 -67)" fill="#fff"/>
  </g>
  <g id="Group_2883" data-name="Group 2883" transform="translate(0 213.347)" opacity="0.5">
    <path id="Path_3404" data-name="Path 3404" d="M38.848,71.776H2.229A2.177,2.177,0,0,1,0,69.547,2.461,2.461,0,0,1,2.229,67h36.3a2.177,2.177,0,0,1,2.229,2.229C40.759,70.5,40.122,71.776,38.848,71.776Z" transform="translate(0 -67)" fill="#fff"/>
  </g>
  <g id="Group_2884" data-name="Group 2884" transform="translate(473.822 92.663)" opacity="0.5">
    <path id="Path_3405" data-name="Path 3405" d="M220.765,33.558H151.029a2.229,2.229,0,0,1,0-4.458h69.736a2.229,2.229,0,0,1,0,4.458Z" transform="translate(-148.8 -29.1)" fill="#fff"/>
  </g>
  <g id="Group_2885" data-name="Group 2885" transform="translate(525.726 222.263)" opacity="0.5">
    <path id="Path_3406" data-name="Path 3406" d="M177.2,74.258h-9.871a2.229,2.229,0,0,1,0-4.458H177.2a2.229,2.229,0,1,1,0,4.458Z" transform="translate(-165.1 -69.8)" fill="#fff"/>
  </g>
  <g id="Group_2886" data-name="Group 2886" transform="translate(474.778 222.263)" opacity="0.5">
    <path id="Path_3407" data-name="Path 3407" d="M189.222,74.258H151.329a2.229,2.229,0,1,1,0-4.458h37.893a2.229,2.229,0,1,1,0,4.458Z" transform="translate(-149.1 -69.8)" fill="#fff"/>
  </g>
</svg>
