<svg xmlns="http://www.w3.org/2000/svg" width="30" height="30" viewBox="0 0 30 30">
  <g id="Group_3742" data-name="Group 3742" transform="translate(-791 -3256)">
    <circle id="Ellipse_136" data-name="Ellipse 136" cx="15" cy="15" r="15" transform="translate(791 3256)" fill="#1e95ee"/>
    <path id="Path_4667" data-name="Path 4667" d="M10.553,0A3.294,3.294,0,0,0,7.8,5.108H6.016A3.294,3.294,0,0,0,3.267,0a3.293,3.293,0,0,0,.026,6.586h7.26a3.3,3.3,0,0,0,3.293-3.293A3.332,3.332,0,0,0,10.553,0ZM1.478,3.293A1.815,1.815,0,1,1,3.293,5.108,1.837,1.837,0,0,1,1.478,3.293Zm9.075,1.789a1.815,1.815,0,1,1,1.815-1.815A1.8,1.8,0,0,1,10.553,5.082Z" transform="translate(799.308 3267.538)" fill="#fff"/>
  </g>
</svg>
