<svg id="Group_2473" data-name="Group 2473" xmlns="http://www.w3.org/2000/svg" width="252.442" height="151" viewBox="0 0 252.442 151">
  <g id="Group_2463" data-name="Group 2463" transform="translate(81.511 49.149)">
    <circle id="Ellipse_42" data-name="Ellipse 42" cx="13.531" cy="13.531" r="13.531" transform="translate(11.276)" fill="#c25eba"/>
    <path id="Path_2599" data-name="Path 2599" d="M97.207,71.6A34.118,34.118,0,0,0,72.4,82.312a37.222,37.222,0,0,0,49.615,0A33.928,33.928,0,0,0,97.207,71.6Z" transform="translate(-72.4 -40.14)" fill="#c25eba"/>
  </g>
  <g id="Group_2465" data-name="Group 2465" transform="translate(124.586 60.087)" opacity="0.6">
    <g id="Group_2464" data-name="Group 2464">
      <circle id="Ellipse_43" data-name="Ellipse 43" cx="6.991" cy="6.991" r="6.991" transform="translate(5.751)" fill="#c25eba"/>
      <path id="Path_2600" data-name="Path 2600" d="M120.636,80.5h0a10.11,10.11,0,0,0,2.706.226A21.3,21.3,0,0,0,137.775,75.2,19.717,19.717,0,0,0,110.6,73.736,27.724,27.724,0,0,1,120.636,80.5Z" transform="translate(-110.6 -51.409)" fill="#c25eba"/>
    </g>
  </g>
  <g id="Group_2467" data-name="Group 2467" transform="translate(61.44 60.087)" opacity="0.6">
    <g id="Group_2466" data-name="Group 2466">
      <circle id="Ellipse_44" data-name="Ellipse 44" cx="6.991" cy="6.991" r="6.991" transform="translate(7.442)" fill="#c25eba"/>
      <path id="Path_2601" data-name="Path 2601" d="M71.74,80.5h0a10.11,10.11,0,0,1-2.706.226A21.3,21.3,0,0,1,54.6,75.2a19.717,19.717,0,0,1,27.175-1.466A26.8,26.8,0,0,0,71.74,80.5Z" transform="translate(-54.6 -51.409)" fill="#c25eba"/>
    </g>
  </g>
  <path id="Path_2602" data-name="Path 2602" d="M154.543,114l-9.021,8.908L119.7,97.421l8.908-9.021Z" transform="translate(15.147 11.153)" fill="#0072c7"/>
  <circle id="Ellipse_45" data-name="Ellipse 45" cx="4.736" cy="4.736" r="4.736" transform="translate(102.823 1)" opacity="0.4" stroke="#0092ff" stroke-linecap="round" stroke-linejoin="round" stroke-miterlimit="10" stroke-width="2" fill="none"/>
  <circle id="Ellipse_46" data-name="Ellipse 46" cx="2.03" cy="2.03" r="2.03" transform="translate(33.25 6.864)" opacity="0.4" stroke="#c25eba" stroke-linecap="round" stroke-linejoin="round" stroke-miterlimit="10" stroke-width="2" fill="none"/>
  <circle id="Ellipse_47" data-name="Ellipse 47" cx="2.255" cy="2.255" r="2.255" transform="translate(246.931 84.781)" opacity="0.4" stroke="#0092ff" stroke-linecap="round" stroke-linejoin="round" stroke-miterlimit="10" stroke-width="2" fill="none"/>
  <line id="Line_2332" data-name="Line 2332" y2="7.555" transform="translate(63.131 114.888)" opacity="0.4" stroke="#0092ff" stroke-linecap="round" stroke-linejoin="round" stroke-miterlimit="10" stroke-width="2" fill="none"/>
  <line id="Line_2333" data-name="Line 2333" x1="7.668" transform="translate(59.297 118.609)" opacity="0.4" stroke="#0092ff" stroke-linecap="round" stroke-linejoin="round" stroke-miterlimit="10" stroke-width="2" fill="none"/>
  <line id="Line_2334" data-name="Line 2334" y2="7.668" transform="translate(139.809 3.368)" opacity="0.4" stroke="#c25eba" stroke-linecap="round" stroke-linejoin="round" stroke-miterlimit="10" stroke-width="2" fill="none"/>
  <line id="Line_2335" data-name="Line 2335" x1="7.668" transform="translate(135.975 7.202)" opacity="0.4" stroke="#c25eba" stroke-linecap="round" stroke-linejoin="round" stroke-miterlimit="10" stroke-width="2" fill="none"/>
  <line id="Line_2336" data-name="Line 2336" x2="5.638" transform="translate(1 42.721)" opacity="0.4" stroke="#c25eba" stroke-linecap="round" stroke-linejoin="round" stroke-miterlimit="10" stroke-width="2" fill="none"/>
  <line id="Line_2337" data-name="Line 2337" x2="5.751" transform="translate(212.201 86.247)" opacity="0.4" stroke="#0092ff" stroke-linecap="round" stroke-linejoin="round" stroke-miterlimit="10" stroke-width="2" fill="none"/>
  <line id="Line_2338" data-name="Line 2338" x2="6.089" transform="translate(6.187 59.297)" opacity="0.4" stroke="#0092ff" stroke-linecap="round" stroke-linejoin="round" stroke-miterlimit="10" stroke-width="2" fill="none"/>
  <line id="Line_2339" data-name="Line 2339" x2="33.49" transform="translate(184.236 37.76)" opacity="0.4" stroke="#0092ff" stroke-linecap="round" stroke-linejoin="round" stroke-miterlimit="10" stroke-width="2" fill="none"/>
  <line id="Line_2340" data-name="Line 2340" x2="4.736" transform="translate(209.044 100.004)" opacity="0.4" stroke="#c25eba" stroke-linecap="round" stroke-linejoin="round" stroke-miterlimit="10" stroke-width="2" fill="none"/>
  <line id="Line_2341" data-name="Line 2341" x2="18.267" transform="translate(184.575 100.004)" opacity="0.4" stroke="#c25eba" stroke-linecap="round" stroke-linejoin="round" stroke-miterlimit="10" stroke-width="2" fill="none"/>
  <path id="Path_2603" data-name="Path 2603" d="M65.537,34.232a49.276,49.276,0,1,0,69.686,0A49.205,49.205,0,0,0,65.537,34.232Zm63.372,63.484a40.5,40.5,0,1,1,0-57.282A40.562,40.562,0,0,1,128.908,97.716Z" transform="translate(6.39 2.401)" fill="#0092ff"/>
  <path id="Path_2604" data-name="Path 2604" d="M167.938,136.3h0a10.277,10.277,0,0,1-14.433,0L124.3,107.433,138.733,93l29.205,28.867A10.277,10.277,0,0,1,167.938,136.3Z" transform="translate(15.734 11.74)" fill="#0092ff"/>
</svg>
